<svg width="220" height="234" viewBox="0 0 220 234" fill="none" xmlns="http://www.w3.org/2000/svg">
<g id="ep:arrow-down-bold" filter="url(#filter0_d_33_894)">
<path id="Vector" d="M101.232 128.91C100.763 128.441 100.5 127.805 100.5 127.142C100.5 126.479 100.763 125.844 101.232 125.375L113.607 113L101.232 100.625C100.777 100.153 100.525 99.5219 100.53 98.8664C100.536 98.211 100.799 97.5839 101.262 97.1204C101.726 96.6569 102.353 96.394 103.008 96.3883C103.664 96.3826 104.295 96.6346 104.767 97.09L118.909 111.232C119.378 111.701 119.641 112.337 119.641 113C119.641 113.663 119.378 114.299 118.909 114.767L104.767 128.91C104.298 129.379 103.662 129.642 102.999 129.642C102.337 129.642 101.701 129.379 101.232 128.91Z" fill="white"/>
</g>
<defs>
<filter id="filter0_d_33_894" x="-12" y="-3" width="240" height="240" filterUnits="userSpaceOnUse" color-interpolation-filters="sRGB">
<feFlood flood-opacity="0" result="BackgroundImageFix"/>
<feColorMatrix in="SourceAlpha" type="matrix" values="0 0 0 0 0 0 0 0 0 0 0 0 0 0 0 0 0 0 127 0" result="hardAlpha"/>
<feOffset dy="4"/>
<feGaussianBlur stdDeviation="50"/>
<feComposite in2="hardAlpha" operator="out"/>
<feColorMatrix type="matrix" values="0 0 0 0 0.117647 0 0 0 0 0.0862745 0 0 0 0 0.14902 0 0 0 0.45 0"/>
<feBlend mode="normal" in2="BackgroundImageFix" result="effect1_dropShadow_33_894"/>
<feBlend mode="normal" in="SourceGraphic" in2="effect1_dropShadow_33_894" result="shape"/>
</filter>
</defs>
</svg>
