<svg width="65" height="65" viewBox="0 0 65 65" fill="none" xmlns="http://www.w3.org/2000/svg">
<path d="M39.5 32C39.5 38.8664 38.6087 45.0626 37.1806 49.5253C36.4657 51.7595 35.625 53.5312 34.7152 54.7337C33.7993 55.9444 32.8767 56.5 32 56.5C31.1233 56.5 30.2007 55.9444 29.2848 54.7337C28.375 53.5312 27.5343 51.7595 26.8194 49.5253C25.3913 45.0626 24.5 38.8664 24.5 32C24.5 25.1336 25.3913 18.9374 26.8194 14.4747C27.5343 12.2405 28.375 10.4688 29.2848 9.2663C30.2007 8.05563 31.1233 7.5 32 7.5C32.8767 7.5 33.7993 8.05563 34.7152 9.2663C35.625 10.4688 36.4657 12.2405 37.1806 14.4747C38.6087 18.9374 39.5 25.1336 39.5 32Z" stroke="black"/>
<path d="M48.5 32C48.5 38.8166 46.6203 44.9657 43.6074 49.3965C40.5926 53.83 36.4798 56.5 32 56.5C27.5202 56.5 23.4074 53.83 20.3926 49.3965C17.3797 44.9657 15.5 38.8166 15.5 32C15.5 25.1834 17.3797 19.0343 20.3926 14.6035C23.4074 10.17 27.5202 7.5 32 7.5C36.4798 7.5 40.5926 10.17 43.6074 14.6035C46.6203 19.0343 48.5 25.1834 48.5 32Z" stroke="black"/>
<circle cx="32.5" cy="32.5" r="32" stroke="black"/>
<circle cx="32" cy="32" r="24.5" stroke="black"/>
<path d="M58.9922 32.8261C59.0037 32.7537 59.0381 32.6967 59.0954 32.6552C59.1526 32.6137 59.2174 32.5987 59.2899 32.6102L62.6328 33.1423C62.7085 33.1544 62.7654 33.1887 62.8037 33.2455C62.8452 33.3027 62.8602 33.3675 62.8487 33.4399L62.4934 35.6718C62.4813 35.7476 62.4486 35.8048 62.3952 35.8435C62.3451 35.8828 62.2838 35.8967 62.2114 35.8852C62.1422 35.8742 62.0899 35.8422 62.0545 35.7893C62.019 35.7364 62.0073 35.6721 62.0194 35.5964L62.3338 33.6213L61.1339 33.4303L60.9083 34.8474C60.8962 34.9231 60.8635 34.9804 60.8101 35.0191C60.7599 35.0584 60.7003 35.0725 60.6312 35.0615C60.5621 35.0505 60.5081 35.0183 60.4694 34.9649C60.4339 34.912 60.4222 34.8477 60.4343 34.772L60.6598 33.3548L59.2081 33.1237C59.1357 33.1122 59.0787 33.0778 59.0372 33.0206C58.9957 32.9633 58.9807 32.8985 58.9922 32.8261Z" fill="black"/>
<path d="M58.5166 37.3402C58.5395 37.2705 58.5825 37.2197 58.6456 37.1879C58.7088 37.156 58.7751 37.1515 58.8448 37.1744L62.0605 38.2314C62.1334 38.2554 62.1841 38.2984 62.2129 38.3604C62.2447 38.4236 62.2492 38.49 62.2263 38.5596L61.5206 40.7066C61.4967 40.7794 61.4552 40.8307 61.3963 40.8605C61.3406 40.8913 61.2779 40.8952 61.2082 40.8723C61.1417 40.8505 61.0952 40.8106 61.0686 40.7528C61.042 40.6949 61.0407 40.6295 61.0646 40.5567L61.6891 38.6567L60.5349 38.2773L60.0868 39.6405C60.0629 39.7134 60.0214 39.7647 59.9625 39.7944C59.9068 39.8252 59.8457 39.8297 59.7792 39.8078C59.7127 39.786 59.6645 39.7456 59.6348 39.6867C59.6082 39.6288 59.6069 39.5635 59.6308 39.4907L60.0789 38.1274L58.8914 37.7371L58.2669 39.6371C58.2429 39.7099 58.2031 39.7617 58.1474 39.7925C58.0916 39.8233 58.0305 39.8278 57.964 39.8059C57.8943 39.783 57.8446 39.7421 57.8149 39.6832C57.7883 39.6253 57.7869 39.56 57.8109 39.4872L58.5166 37.3402Z" fill="black"/>
<path d="M57.4182 41.4431C57.4519 41.378 57.5025 41.3347 57.5699 41.3134C57.6373 41.292 57.7036 41.2982 57.7687 41.3319L60.7739 42.8897C60.842 42.925 60.8853 42.9755 60.9037 43.0414C60.9251 43.1088 60.9189 43.1751 60.8851 43.2402L60.4686 44.0436C60.3367 44.2981 60.1742 44.5067 59.981 44.6694C59.7892 44.8366 59.575 44.9564 59.3384 45.029C59.1047 45.1031 58.8613 45.1272 58.6083 45.1011C58.3552 45.0751 58.1014 44.9961 57.8469 44.8642C57.5924 44.7322 57.3801 44.5696 57.21 44.3763C57.0428 44.1845 56.9207 43.9711 56.8436 43.7359C56.7695 43.5022 56.744 43.2581 56.7671 43.0035C56.7916 42.7534 56.8698 42.5011 57.0017 42.2466L57.4182 41.4431ZM57.7069 41.8856L57.4101 42.4582C57.2813 42.7068 57.224 42.955 57.2383 43.2027C57.254 43.4549 57.3326 43.6871 57.4741 43.8994C57.6186 44.1132 57.8195 44.2868 58.077 44.4203C58.3374 44.5553 58.5952 44.6194 58.8502 44.6127C59.1052 44.6059 59.3388 44.5356 59.551 44.4015C59.7616 44.2704 59.9314 44.0805 60.0602 43.8319L60.3571 43.2593L57.7069 41.8856Z" fill="black"/>
<path d="M55.6661 45.3382C55.7099 45.2793 55.7668 45.2448 55.8368 45.2345C55.9067 45.2243 55.9711 45.2411 56.03 45.2848L58.7454 47.3059C58.8069 47.3517 58.8414 47.4086 58.849 47.4766C58.8592 47.5465 58.8425 47.6109 58.7987 47.6697L57.4493 49.4827C57.4035 49.5442 57.348 49.5797 57.2827 49.5893C57.2201 49.6009 57.1593 49.5847 57.1005 49.541C57.0444 49.4992 57.0128 49.4466 57.0059 49.3833C56.999 49.32 57.0185 49.2576 57.0643 49.1961L58.2584 47.5917L57.2837 46.8663L56.4269 48.0174C56.3812 48.0789 56.3256 48.1144 56.2603 48.124C56.1977 48.1356 56.1383 48.1205 56.0822 48.0787C56.026 48.0369 55.9931 47.9833 55.9836 47.918C55.9767 47.8547 55.9961 47.7923 56.0419 47.7308L56.8987 46.5797L55.896 45.8333L54.7018 47.4377C54.656 47.4992 54.6018 47.5357 54.5392 47.5473C54.4766 47.5589 54.4172 47.5438 54.361 47.502C54.3022 47.4582 54.268 47.4036 54.2584 47.3383C54.2515 47.275 54.271 47.2126 54.3168 47.1511L55.6661 45.3382Z" fill="black"/>
<path d="M53.3311 48.8617C53.3835 48.8104 53.4451 48.7852 53.5158 48.7859C53.5865 48.7867 53.6475 48.8133 53.6988 48.8657L56.0661 51.2852C56.1197 51.34 56.145 51.4016 56.1419 51.4699C56.1411 51.5406 56.1145 51.6016 56.0621 51.6529L55.4188 52.2823C55.2401 52.4572 55.0443 52.5741 54.8316 52.633C54.6211 52.6944 54.4136 52.6968 54.2092 52.6404C54.0023 52.5863 53.8138 52.4722 53.6437 52.2983C53.4851 52.1363 53.3834 51.9537 53.3385 51.7505C53.2912 51.5496 53.3016 51.3458 53.3699 51.1391C53.4382 50.9325 53.5616 50.7417 53.7403 50.5669L54.1978 50.1193L53.3271 49.2294C53.2758 49.177 53.2505 49.1154 53.2513 49.0447C53.2497 48.9763 53.2763 48.9153 53.3311 48.8617ZM51.8479 50.3129C51.8813 50.2802 51.9192 50.2571 51.9618 50.2434C52.002 50.2321 52.0468 50.2325 52.0962 50.2449L53.7535 50.6519L53.494 51.1087L51.9847 50.7387C51.8742 50.7115 51.8042 50.6518 51.7745 50.5596C51.7472 50.4697 51.7717 50.3875 51.8479 50.3129ZM54.5335 50.4624L54.076 50.9099C53.9664 51.0172 53.8897 51.1318 53.846 51.2539C53.8045 51.3784 53.7961 51.5009 53.8208 51.6214C53.8477 51.7443 53.9078 51.8533 54.001 51.9486C54.1036 52.0535 54.2184 52.1231 54.3453 52.1575C54.4722 52.1918 54.5995 52.1909 54.7272 52.1546C54.8548 52.1182 54.9735 52.0465 55.0831 51.9392L55.5405 51.4916L54.5335 50.4624Z" fill="black"/>
<path d="M50.7894 51.7605C50.8656 51.7067 50.9473 51.6981 51.0342 51.7346C51.1212 51.7712 51.1743 51.8378 51.1935 51.9344L51.979 55.4858C52.0054 55.61 51.9723 55.7047 51.8797 55.77C51.7816 55.8392 51.6812 55.8386 51.5786 55.7682L48.4869 53.8311C48.4031 53.7759 48.3596 53.7026 48.3562 53.6112C48.3521 53.5243 48.3895 53.4531 48.4685 53.3974C48.5094 53.3685 48.5566 53.3516 48.6101 53.3465C48.6628 53.346 48.7117 53.3604 48.7569 53.3898L51.5454 55.192L51.431 55.2727L50.6855 52.0296C50.6738 51.9725 50.6793 51.9197 50.7021 51.871C50.7221 51.8242 50.7512 51.7874 50.7894 51.7605ZM51.0685 52.616L51.1529 53.0827L49.5512 54.2123L49.1399 53.9762L51.0685 52.616Z" fill="black"/>
<path d="M46.3146 55.0327C46.3806 55.0007 46.447 54.9962 46.5138 55.0193C46.5806 55.0425 46.6301 55.087 46.6621 55.153L48.255 58.4315L47.7873 58.6587L46.1944 55.3802C46.1624 55.3142 46.1579 55.2479 46.181 55.181C46.2041 55.1142 46.2487 55.0648 46.3146 55.0327ZM49.0167 57.5278C49.0796 57.4972 49.1416 57.4912 49.2025 57.5098C49.2618 57.5328 49.3068 57.5758 49.3374 57.6388C49.368 57.7017 49.3733 57.7622 49.3532 57.8201C49.3317 57.8824 49.2894 57.9289 49.2264 57.9595L46.8204 59.1285C46.7574 59.1591 46.6963 59.1629 46.6369 59.1398C46.576 59.1213 46.5302 59.0805 46.4996 59.0175C46.469 58.9546 46.4645 58.8919 46.4861 58.8295C46.5062 58.7716 46.5477 58.7274 46.6106 58.6968L49.0167 57.5278Z" fill="black"/>
<path d="M43.2668 56.5418C43.335 56.515 43.4016 56.5157 43.4664 56.544C43.5312 56.5723 43.577 56.6206 43.6038 56.6888L44.8403 59.8399C44.8684 59.9112 44.8676 59.9778 44.8381 60.0395C44.8098 60.1043 44.7616 60.1501 44.6933 60.1769C44.6219 60.2049 44.5554 60.2042 44.4937 60.1747C44.4301 60.1495 44.3843 60.1012 44.3563 60.0298L43.1197 56.8788C43.0929 56.8105 43.0937 56.744 43.122 56.6792C43.1471 56.6156 43.1954 56.5698 43.2668 56.5418Z" fill="black"/>
<path d="M39.9824 57.8731C40.2713 57.8226 40.544 57.824 40.8003 57.8773C41.0572 57.9338 41.2879 58.0339 41.4924 58.1775C41.6941 58.3249 41.8636 58.5102 42.0008 58.7332C42.1385 58.9595 42.2326 59.2172 42.2832 59.5061C42.3337 59.7951 42.3323 60.0677 42.279 60.3241C42.2257 60.5804 42.1289 60.8105 41.9886 61.0144C41.8456 61.2222 41.6626 61.3946 41.4396 61.5318C41.2171 61.6722 40.9614 61.7677 40.6725 61.8182C40.3835 61.8688 40.1122 61.8655 39.8586 61.8083C39.6022 61.755 39.3715 61.655 39.1665 61.5081C38.962 61.3645 38.7912 61.1812 38.6541 60.9582C38.5169 60.7351 38.4231 60.4791 38.3725 60.1902C38.322 59.9012 38.3231 59.627 38.3758 59.3673C38.4291 59.111 38.5272 58.8789 38.6702 58.6712C38.8138 58.4667 38.9969 58.2943 39.2193 58.1538C39.4391 58.0172 39.6934 57.9237 39.9824 57.8731ZM40.0633 58.3361C39.8499 58.3734 39.6612 58.4454 39.4971 58.5519C39.3303 58.6623 39.193 58.7963 39.0852 58.9539C38.978 59.1148 38.9059 59.2932 38.8692 59.4891C38.8291 59.6856 38.8277 59.8906 38.8651 60.104C38.9024 60.3175 38.9733 60.5098 39.0777 60.681C39.1788 60.8528 39.3068 60.9946 39.4617 61.1062C39.6171 61.2212 39.7918 61.3006 39.9856 61.3445C40.1761 61.389 40.378 61.3926 40.5915 61.3553C40.8049 61.3179 40.9953 61.2457 41.1627 61.1386C41.3268 61.0321 41.4624 60.8984 41.5697 60.7375C41.6742 60.5805 41.7465 60.4037 41.7865 60.2072C41.8266 60.0107 41.828 59.8057 41.7906 59.5923C41.7533 59.3789 41.6824 59.1865 41.578 59.0153C41.4736 58.844 41.3453 58.7007 41.1932 58.5852C41.0383 58.4735 40.8653 58.3938 40.6742 58.346C40.4804 58.3021 40.2768 58.2988 40.0633 58.3361Z" fill="black"/>
<path d="M36.2415 58.9791C36.3148 58.9813 36.3757 59.0082 36.4241 59.0598C36.4692 59.1112 36.4906 59.1735 36.4884 59.2468L36.3839 62.6302C36.3815 62.7068 36.3563 62.7678 36.3082 62.813C36.2567 62.8614 36.1943 62.8845 36.121 62.8822C36.041 62.8797 35.9753 62.846 35.924 62.7811L33.8346 59.8152L33.7501 62.5489C33.7478 62.6255 33.7209 62.6864 33.6694 62.7315C33.6179 62.7799 33.5555 62.803 33.4822 62.8007C33.4056 62.7983 33.3447 62.7715 33.2996 62.72C33.2544 62.672 33.233 62.6096 33.2354 62.533L33.3399 59.1496C33.3421 59.0763 33.3674 59.0154 33.4155 58.9668C33.4637 58.9183 33.5261 58.8952 33.6028 58.8976C33.6361 58.8986 33.6725 58.9064 33.7121 58.921C33.7482 58.9388 33.7775 58.963 33.7999 58.9937L35.8893 61.9596L35.9736 59.2309C35.9759 59.1576 36.0028 59.0968 36.0543 59.0483C36.1025 58.9998 36.1649 58.9767 36.2415 58.9791Z" fill="black"/>
<path d="M27.3625 58.4048C27.6226 58.4774 27.8531 58.5936 28.0542 58.7536C28.2512 58.9159 28.4105 59.1074 28.5323 59.3283C28.65 59.5515 28.7242 59.7937 28.7551 60.055C28.7828 60.3153 28.7586 60.582 28.6824 60.8549C28.6071 61.1246 28.4906 61.362 28.333 61.5672C28.1712 61.7746 27.9827 61.9418 27.7674 62.0685C27.5479 62.1976 27.3119 62.2806 27.0594 62.3173C26.8069 62.3541 26.549 62.3358 26.2857 62.2623C26.0385 62.1933 25.8355 62.102 25.6769 61.9885C25.515 61.8741 25.3648 61.718 25.2262 61.5201C25.2059 61.4937 25.1925 61.4674 25.1859 61.4414C25.1753 61.4176 25.1714 61.3941 25.1745 61.3707C25.1735 61.3496 25.177 61.3247 25.185 61.2958C25.2021 61.2348 25.2389 61.1897 25.2955 61.1605C25.348 61.1336 25.4056 61.1255 25.4684 61.1361C25.5303 61.1499 25.5839 61.1873 25.6291 61.2484C25.7192 61.3843 25.8209 61.4975 25.9341 61.5879C26.044 61.6775 26.2034 61.7514 26.4121 61.8096C26.6015 61.8625 26.7904 61.8737 26.9789 61.8432C27.1674 61.8128 27.3446 61.7481 27.5107 61.6491C27.6735 61.5492 27.8154 61.4192 27.9362 61.2591C28.0561 61.1023 28.1443 60.9227 28.2008 60.7204C28.2581 60.515 28.2766 60.3125 28.2562 60.113C28.2348 59.9167 28.1804 59.7336 28.0928 59.5638C28.002 59.3931 27.8839 59.2459 27.7385 59.1223C27.5921 59.0018 27.4242 58.9152 27.2348 58.8623C27.0711 58.8166 26.9094 58.8009 26.7496 58.8151C26.5858 58.8317 26.4226 58.8709 26.26 58.9328C26.1905 58.9584 26.1294 58.9604 26.0766 58.9387C26.0197 58.9194 25.9778 58.8834 25.951 58.8309C25.9232 58.7817 25.9192 58.7217 25.9389 58.6511C25.9478 58.619 25.9632 58.5887 25.985 58.5601C26.0059 58.5348 26.0328 58.5129 26.0657 58.4944C26.2776 58.4047 26.4929 58.3524 26.7117 58.3373C26.9273 58.3213 27.1442 58.3438 27.3625 58.4048Z" fill="black"/>
<path d="M23.8221 57.5587C23.8857 57.5878 23.9298 57.6356 23.9544 57.7019C23.979 57.7682 23.9761 57.8346 23.9455 57.9013L23.4599 58.9603L23.8084 61.4029C23.8186 61.4846 23.8067 61.5506 23.7726 61.601C23.7371 61.6544 23.6905 61.688 23.6328 61.7019C23.5707 61.7174 23.5108 61.712 23.4532 61.6856C23.4017 61.6619 23.3664 61.6311 23.3472 61.5929C23.3266 61.5578 23.3124 61.5128 23.3046 61.4579L22.9902 59.0969L23.172 59.1803L21.1511 60.4923C21.1102 60.5175 21.0689 60.5316 21.0272 60.5345C20.9842 60.5404 20.9384 60.5323 20.8899 60.5101C20.8354 60.485 20.799 60.4445 20.7807 60.3884C20.761 60.3354 20.7613 60.2787 20.7817 60.2184C20.8006 60.1611 20.8415 60.1119 20.9042 60.0711L22.9917 58.7456L23.4774 57.6866C23.5079 57.62 23.5564 57.5743 23.6227 57.5497C23.6889 57.5251 23.7554 57.5281 23.8221 57.5587Z" fill="black"/>
<path d="M20.642 56.5474C20.7011 56.5907 20.7361 56.6474 20.7469 56.7172C20.7549 56.7852 20.7373 56.8487 20.6939 56.9078L18.6927 59.6379C18.6474 59.6998 18.5921 59.7357 18.5269 59.7457C18.457 59.7565 18.3925 59.7402 18.3334 59.6969C18.2688 59.6496 18.2338 59.5846 18.2282 59.502L18.1845 55.8743L16.5675 58.0801C16.5222 58.142 16.4656 58.1769 16.3977 58.185C16.3278 58.1958 16.2633 58.1795 16.2041 58.1361C16.1423 58.0908 16.1073 58.0342 16.0993 57.9662C16.0892 57.901 16.1069 57.8375 16.1522 57.7756L18.1534 55.0456C18.1967 54.9864 18.252 54.9505 18.3192 54.9377C18.3864 54.925 18.4509 54.9413 18.5128 54.9866C18.5396 55.0063 18.5653 55.0334 18.5897 55.0678C18.6094 55.1029 18.6198 55.1395 18.6209 55.1774L18.6646 58.8052L20.2786 56.6034C20.3219 56.5442 20.3786 56.5093 20.4484 56.4985C20.5156 56.4858 20.5802 56.5021 20.642 56.5474Z" fill="black"/>
<path d="M15.1249 52.5615C15.323 52.7778 15.4687 53.0083 15.5618 53.253C15.6525 53.4999 15.6924 53.7482 15.6815 53.9978C15.6659 54.2472 15.601 54.4898 15.487 54.7254C15.3704 54.9633 15.204 55.1814 14.9877 55.3796C14.7715 55.5777 14.541 55.7234 14.2963 55.8165C14.0516 55.9097 13.8055 55.952 13.5582 55.9436C13.3061 55.9349 13.0623 55.8736 12.8266 55.7595C12.5885 55.6476 12.3703 55.4836 12.1721 55.2673C11.974 55.0511 11.8307 54.8207 11.7422 54.5762C11.6491 54.3315 11.6092 54.0832 11.6226 53.8313C11.6335 53.5817 11.6959 53.3391 11.81 53.1034C11.9241 52.8678 12.0893 52.6508 12.3056 52.4527C12.5218 52.2545 12.7535 52.1077 13.0007 52.0123C13.2454 51.9192 13.4938 51.8769 13.7459 51.8856C13.9955 51.8965 14.2393 51.9578 14.4775 52.0697C14.7109 52.1813 14.9267 52.3453 15.1249 52.5615ZM14.7783 52.879C14.632 52.7193 14.4697 52.599 14.2916 52.5181C14.1087 52.437 13.9219 52.3934 13.731 52.3875C13.5377 52.3837 13.3486 52.4191 13.1637 52.4936C12.9766 52.5657 12.8031 52.6749 12.6434 52.8213C12.4836 52.9677 12.3597 53.1309 12.2716 53.3111C12.1813 53.4889 12.1308 53.673 12.1201 53.8637C12.107 54.0565 12.1341 54.2465 12.2014 54.4334C12.2665 54.6179 12.3723 54.7901 12.5186 54.9498C12.665 55.1095 12.8284 55.2311 13.0088 55.3145C13.1869 55.3954 13.3726 55.4377 13.5659 55.4414C13.7545 55.4449 13.9424 55.4106 14.1296 55.3386C14.3167 55.2665 14.4902 55.1573 14.6499 55.0109C14.8097 54.8646 14.9336 54.7013 15.0217 54.5211C15.1097 54.3409 15.1615 54.1556 15.1769 53.9652C15.1875 53.7746 15.1616 53.5859 15.0989 53.3991C15.0316 53.2121 14.9247 53.0388 14.7783 52.879Z" fill="black"/>
<path d="M12.3578 49.9642C12.3981 50.0254 12.4111 50.0907 12.3967 50.16C12.3806 50.2264 12.3418 50.2798 12.2806 50.32L9.4516 52.1789C9.39031 52.2191 9.32505 52.2321 9.2558 52.2178C9.18656 52.2035 9.13272 52.167 9.09428 52.1085C9.05401 52.0473 9.04104 51.982 9.05537 51.9127C9.0697 51.8435 9.10751 51.7887 9.16879 51.7485L11.7805 50.0324L10.7865 48.5197C10.7463 48.4585 10.7333 48.3932 10.7476 48.3239C10.7619 48.2547 10.7997 48.1999 10.861 48.1597C10.9223 48.1194 10.9876 48.1064 11.0568 48.1208C11.1261 48.1351 11.1808 48.1729 11.2211 48.2342L12.3578 49.9642Z" fill="black"/>
<path d="M9.17856 45.2196C9.28776 45.4919 9.34279 45.7589 9.34366 46.0207C9.34143 46.2838 9.29122 46.5302 9.19302 46.7599C9.09048 46.9878 8.94428 47.1919 8.75443 47.3722C8.56147 47.5538 8.32887 47.6991 8.05662 47.8083C7.78437 47.9175 7.51733 47.9726 7.2555 47.9734C6.99367 47.9743 6.74851 47.9272 6.52002 47.8321C6.28719 47.7351 6.08062 47.5917 5.90032 47.4018C5.71692 47.2132 5.57062 46.9828 5.46142 46.7105C5.35222 46.4383 5.29936 46.1722 5.30282 45.9122C5.30196 45.6504 5.35217 45.404 5.45347 45.173C5.55167 44.9433 5.6957 44.7382 5.88555 44.5579C6.07541 44.3776 6.30647 44.2329 6.57872 44.1237C6.85097 44.0145 7.11955 43.9588 7.38448 43.9567C7.64631 43.9559 7.89364 44.0039 8.12647 44.1009C8.3562 44.1991 8.56277 44.3425 8.74617 44.5311C8.92523 44.7178 9.06936 44.9474 9.17856 45.2196ZM8.74234 45.3946C8.66168 45.1935 8.55227 45.0237 8.41411 44.8851C8.27161 44.7448 8.11212 44.6381 7.93564 44.5653C7.75607 44.4936 7.56663 44.4601 7.36732 44.4646C7.16677 44.466 6.96594 44.5071 6.76485 44.5877C6.56376 44.6684 6.39024 44.7775 6.24429 44.9151C6.09709 45.0495 5.98489 45.2041 5.90769 45.3787C5.82738 45.5546 5.78578 45.7418 5.78287 45.9405C5.77873 46.1361 5.81698 46.3345 5.89764 46.5356C5.9783 46.7367 6.08833 46.908 6.22773 47.0496C6.3659 47.1882 6.52477 47.2932 6.70434 47.3649C6.87958 47.4347 7.06747 47.4688 7.26802 47.4674C7.46857 47.466 7.6694 47.4249 7.87049 47.3443C8.07158 47.2636 8.24511 47.1545 8.39106 47.017C8.53701 46.8794 8.65075 46.7242 8.73229 46.5515C8.8095 46.3768 8.85173 46.1911 8.85897 45.9943C8.86188 45.7956 8.823 45.5957 8.74234 45.3946Z" fill="black"/>
<path d="M7.21983 40.3365C7.27849 40.6 7.28472 40.8582 7.23853 41.1109C7.18836 41.3611 7.09462 41.592 6.9573 41.8035C6.816 42.0126 6.63746 42.1923 6.42166 42.3428C6.20515 42.49 5.9586 42.5944 5.68204 42.656C5.40873 42.7168 5.14444 42.7261 4.88917 42.6839C4.62992 42.6391 4.39362 42.5517 4.18026 42.4216C3.96292 42.289 3.77847 42.1201 3.62691 41.9148C3.47535 41.7095 3.36988 41.4734 3.3105 41.2066C3.25473 40.9561 3.23947 40.7341 3.26471 40.5406C3.28923 40.3439 3.35605 40.1378 3.46516 39.9223C3.47889 39.8919 3.4957 39.8677 3.51558 39.8496C3.53148 39.829 3.55045 39.8145 3.57251 39.8062C3.59058 39.7954 3.61426 39.7867 3.64354 39.7802C3.70536 39.7664 3.76249 39.7776 3.81493 39.8137C3.86664 39.8466 3.90137 39.8952 3.9191 39.9596C3.93612 40.0207 3.928 40.0839 3.89476 40.1494C3.81744 40.293 3.76561 40.436 3.73926 40.5784C3.71219 40.7176 3.7222 40.893 3.76927 41.1045C3.812 41.2964 3.89124 41.4683 4.00698 41.6201C4.12273 41.772 4.26342 41.8977 4.42904 41.9975C4.59394 42.0939 4.77546 42.1577 4.9736 42.1887C5.16849 42.2205 5.36842 42.2135 5.57341 42.1679C5.78164 42.1216 5.9689 42.0423 6.13518 41.9302C6.2982 41.8188 6.43391 41.6844 6.54233 41.5271C6.65001 41.3665 6.72407 41.193 6.7645 41.0064C6.80168 40.8205 6.7989 40.6316 6.75618 40.4397C6.71924 40.2737 6.65682 40.1237 6.56892 39.9896C6.47704 39.853 6.36546 39.7275 6.23418 39.6133C6.17884 39.5642 6.14827 39.5112 6.14247 39.4545C6.13269 39.3952 6.1446 39.3413 6.17821 39.2928C6.20856 39.2451 6.25953 39.2133 6.33111 39.1973C6.36365 39.1901 6.39764 39.1894 6.43307 39.1951C6.46453 39.1984 6.49653 39.2117 6.52907 39.2352C6.71062 39.3758 6.85964 39.539 6.97612 39.7248C7.08935 39.9113 7.17058 40.1152 7.21983 40.3365ZM6.33111 39.1973L6.34213 39.7071L5.46851 39.9016L5.61842 40.5751C5.63435 40.6467 5.6266 40.7116 5.59517 40.7698C5.56373 40.828 5.51548 40.8644 5.4504 40.8788C5.38533 40.8933 5.32621 40.8809 5.27305 40.8415C5.21989 40.8021 5.18534 40.7466 5.16941 40.675L4.96627 39.7624C4.94961 39.6875 4.96062 39.6219 4.99928 39.5655C5.0347 39.5098 5.08982 39.4736 5.16466 39.457L6.33111 39.1973Z" fill="black"/>
<path d="M6.53444 37.618C6.54458 37.6907 6.52834 37.7552 6.48573 37.8116C6.44313 37.868 6.38551 37.9013 6.31288 37.9115L2.96038 38.3794C2.88444 38.39 2.81991 38.3737 2.76678 38.3307C2.71035 38.2881 2.67707 38.2304 2.66693 38.1578C2.65633 38.0819 2.67257 38.0174 2.71564 37.9642C2.75494 37.9083 2.81256 37.875 2.88849 37.8644L6.241 37.3965C6.31363 37.3863 6.37816 37.4026 6.43459 37.4452C6.49056 37.4845 6.52384 37.5421 6.53444 37.618Z" fill="black"/>
<path d="M5.94368 32.6893L4.8362 33.6679C4.77968 33.7178 4.71981 33.7408 4.6566 33.7369C4.59006 33.7328 4.53182 33.7025 4.48188 33.646C4.43194 33.5895 4.40892 33.5296 4.41283 33.4664C4.41694 33.3998 4.44726 33.3416 4.50378 33.2917L5.61625 32.3134C5.67256 32.2668 5.73233 32.2455 5.79554 32.2494C5.85896 32.2499 5.91564 32.2785 5.96558 32.335C6.01552 32.3915 6.03844 32.4531 6.03432 32.5196C6.03042 32.5828 6.0002 32.6394 5.94368 32.6893ZM5.98922 34.0598C5.97113 34.3525 5.90633 34.6174 5.79484 34.8543C5.68002 35.091 5.52899 35.2921 5.34176 35.4575C5.15141 35.6194 4.93182 35.7411 4.68298 35.8225C4.43082 35.9038 4.15836 35.9354 3.86558 35.9173C3.57281 35.8992 3.30797 35.8344 3.07106 35.7229C2.83415 35.6114 2.63288 35.4637 2.46725 35.2798C2.29849 35.0924 2.17337 34.8742 2.0919 34.6254C2.00711 34.3764 1.97375 34.1055 1.99185 33.8127C2.00995 33.5199 2.0763 33.2568 2.19092 33.0235C2.30241 32.7866 2.45344 32.5855 2.644 32.4203C2.83122 32.2548 3.04926 32.1314 3.29809 32.0499C3.54692 31.9684 3.81773 31.9368 4.1105 31.9549C4.40328 31.9729 4.66978 32.0378 4.91001 32.1495C5.14692 32.261 5.34975 32.4105 5.51851 32.5979C5.68394 32.7852 5.80906 33.0033 5.89385 33.2523C5.97553 33.4979 6.00732 33.767 5.98922 34.0598ZM5.52012 34.0308C5.53348 33.8145 5.50746 33.6142 5.44204 33.4298C5.37351 33.2419 5.27515 33.0772 5.14697 32.9357C5.01546 32.7939 4.85871 32.6824 4.67672 32.601C4.49493 32.5163 4.29591 32.4673 4.07966 32.4539C3.8634 32.4405 3.65986 32.4647 3.46902 32.5264C3.27839 32.5847 3.11076 32.6762 2.96613 32.8009C2.81817 32.9253 2.70028 33.0767 2.61244 33.2549C2.52482 33.4298 2.47432 33.6254 2.46096 33.8417C2.44759 34.0579 2.47351 34.2599 2.53872 34.4476C2.60414 34.632 2.7026 34.7951 2.83411 34.9368C2.96249 35.075 3.11758 35.1864 3.29937 35.2711C3.48115 35.3558 3.68017 35.4049 3.89643 35.4182C4.11268 35.4316 4.31623 35.4075 4.50706 35.3458C4.6979 35.2841 4.86719 35.1927 5.01495 35.0716C5.15958 34.9469 5.27737 34.7973 5.36832 34.6225C5.45615 34.4443 5.50675 34.247 5.52012 34.0308Z" fill="black"/>
<path d="M6.19986 28.8858C6.11616 29.1947 5.98575 29.4529 5.80863 29.6605C5.62829 29.8672 5.41846 30.0106 5.17916 30.0908C4.94072 30.1678 4.6912 30.171 4.4306 30.1004L2.17689 29.4896C2.10289 29.4696 2.04991 29.4293 2.01795 29.3688C1.98277 29.3075 1.97477 29.2414 1.99395 29.1707C2.014 29.0967 2.05426 29.0437 2.11472 29.0117C2.17284 28.9757 2.2389 28.9677 2.3129 28.9877L4.56661 29.5985C4.74035 29.6455 4.90698 29.6424 5.06652 29.5889C5.22371 29.5313 5.36272 29.4326 5.48352 29.2926C5.60199 29.1486 5.68955 28.972 5.74622 28.7629C5.80115 28.5602 5.81254 28.3716 5.78039 28.1972C5.7459 28.0186 5.67447 27.868 5.5661 27.7454C5.45539 27.6187 5.31316 27.5318 5.13943 27.4847L2.88572 26.874C2.81172 26.8539 2.75874 26.8136 2.72677 26.7532C2.69159 26.6918 2.68359 26.6258 2.70277 26.555C2.72283 26.481 2.76309 26.428 2.82355 26.3961C2.8808 26.3632 2.94642 26.3568 3.02042 26.3769L5.27413 26.9876C5.53473 27.0583 5.74851 27.187 5.91545 27.3738C6.08326 27.5574 6.19369 27.7808 6.24674 28.0438C6.29657 28.306 6.28095 28.5866 6.19986 28.8858Z" fill="black"/>
<path d="M6.92739 24.9685C6.89707 25.0353 6.84881 25.0811 6.78261 25.106C6.71642 25.1308 6.64993 25.1281 6.58316 25.0978L3.50103 23.6982C3.43123 23.6665 3.38542 23.6183 3.3636 23.5535C3.33874 23.4873 3.34148 23.4208 3.3718 23.354L4.30621 21.2962C4.33791 21.2264 4.38465 21.1799 4.44644 21.1567C4.50519 21.1321 4.56795 21.135 4.63472 21.1653C4.69846 21.1943 4.7404 21.2389 4.76057 21.2994C4.78073 21.3598 4.77496 21.4249 4.74326 21.4947L3.91635 23.3157L5.02263 23.8181L5.61594 22.5115C5.64764 22.4417 5.69438 22.3952 5.75617 22.372C5.81492 22.3474 5.87616 22.3496 5.9399 22.3785C6.00364 22.4075 6.0471 22.4528 6.0703 22.5146C6.09046 22.575 6.08469 22.6401 6.053 22.7099L5.45969 24.0165L6.59784 24.5334L7.42475 22.7123C7.45645 22.6425 7.50168 22.5953 7.56043 22.5707C7.61918 22.5462 7.68042 22.5483 7.74416 22.5773C7.81093 22.6076 7.85591 22.6537 7.87911 22.7154C7.89927 22.7758 7.8935 22.841 7.8618 22.9108L6.92739 24.9685Z" fill="black"/>
<path d="M9.63902 19.242C9.59853 19.3031 9.54363 19.3407 9.47434 19.3548C9.40504 19.3689 9.33983 19.3557 9.27869 19.3152L6.45656 17.446C6.39264 17.4037 6.35504 17.3488 6.34374 17.2813C6.32966 17.212 6.34287 17.1468 6.38337 17.0857C6.4257 17.0217 6.4806 16.9841 6.54805 16.9728C6.61457 16.9569 6.67979 16.9701 6.7437 17.0125L9.56583 18.8816C9.62697 18.9221 9.66457 18.977 9.67865 19.0463C9.69457 19.1128 9.68136 19.1781 9.63902 19.242Z" fill="black"/>
<path d="M10.4483 17.2752C10.3965 17.3271 10.3352 17.353 10.2645 17.353C10.1961 17.3507 10.136 17.3235 10.0841 17.2717L7.69059 14.8781C7.63638 14.8239 7.60927 14.7638 7.60927 14.6978C7.60927 14.6271 7.6352 14.5658 7.68705 14.514C7.74362 14.4574 7.81315 14.4327 7.89565 14.4397L11.4878 14.9488L9.55382 13.0149C9.4996 12.9607 9.47368 12.8994 9.47603 12.8311C9.47603 12.7604 9.50196 12.6991 9.55382 12.6472C9.60803 12.593 9.66931 12.5671 9.73766 12.5694C9.80366 12.5694 9.86376 12.5965 9.91798 12.6507L12.3115 15.0443C12.3634 15.0962 12.3905 15.1563 12.3928 15.2246C12.3952 15.293 12.3693 15.3543 12.3151 15.4085C12.2915 15.432 12.2609 15.4532 12.2231 15.4721C12.1854 15.4862 12.1477 15.491 12.11 15.4862L8.5179 14.9771L10.4483 16.9075C10.5002 16.9594 10.5261 17.0207 10.5261 17.0914C10.5284 17.1597 10.5025 17.221 10.4483 17.2752Z" fill="black"/>
<path d="M14.6761 12.8883C14.6168 12.9315 14.5522 12.9475 14.4824 12.9365C14.4125 12.9255 14.356 12.8903 14.3129 12.831L12.1687 9.88338L12.5892 9.57749L14.7334 12.5251C14.7765 12.5844 14.7926 12.649 14.7816 12.7188C14.7706 12.7887 14.7354 12.8452 14.6761 12.8883ZM11.5777 10.9069C11.5211 10.948 11.4612 10.9648 11.398 10.9572C11.3355 10.945 11.2836 10.9106 11.2424 10.8539C11.2013 10.7973 11.1855 10.7388 11.195 10.6782C11.2053 10.613 11.2387 10.5599 11.2954 10.5187L13.4586 8.94512C13.5152 8.90394 13.5747 8.88948 13.6372 8.90172C13.7005 8.90932 13.7527 8.94142 13.7938 8.99802C13.835 9.05463 13.8505 9.11553 13.8402 9.18072C13.8306 9.24125 13.7975 9.29211 13.7409 9.33329L11.5777 10.9069Z" fill="black"/>
<path d="M17.3051 10.6745C17.2396 10.7075 17.1733 10.713 17.1062 10.6908C17.039 10.6687 16.9889 10.6249 16.9559 10.5594L15.4316 7.53706C15.3971 7.46861 15.3916 7.40229 15.4153 7.33811C15.4374 7.27095 15.4812 7.22086 15.5467 7.18783L17.5646 6.17014C17.633 6.13562 17.6986 6.12868 17.7613 6.14934C17.8224 6.16702 17.8696 6.20859 17.9026 6.27407C17.9341 6.33657 17.9388 6.39767 17.9166 6.45738C17.8945 6.51709 17.8492 6.5642 17.7807 6.59872L15.995 7.49933L16.5421 8.58418L17.8234 7.93799C17.8918 7.90346 17.9574 7.89653 18.0201 7.91718C18.0812 7.93486 18.1276 7.97495 18.1591 8.03745C18.1906 8.09995 18.1961 8.16254 18.1754 8.22522C18.1533 8.28493 18.108 8.33204 18.0395 8.36657L16.7582 9.01276L17.3211 10.1288L19.1069 9.22824C19.1753 9.19372 19.2401 9.18529 19.3013 9.20297C19.3625 9.22065 19.4088 9.26074 19.4404 9.32324C19.4734 9.38871 19.4796 9.45279 19.4589 9.51548C19.4368 9.57518 19.3915 9.6223 19.323 9.65682L17.3051 10.6745Z" fill="black"/>
<path d="M20.9646 8.54966C20.8946 8.57177 20.8283 8.56653 20.7656 8.53393C20.7028 8.50133 20.6604 8.45007 20.6383 8.38015L19.6177 5.15267C19.5946 5.07957 19.5998 5.01324 19.6334 4.95367C19.666 4.89092 19.7173 4.84849 19.7872 4.82638L20.6453 4.55502C20.8837 4.47965 21.1111 4.46367 21.3276 4.50708C21.5431 4.54731 21.7293 4.63875 21.8863 4.78139C22.0465 4.92303 22.1632 5.10985 22.2366 5.34186C22.3049 5.55798 22.3133 5.76685 22.2617 5.96846C22.2133 6.16906 22.1119 6.34619 21.9578 6.49982C21.8036 6.65346 21.6073 6.76797 21.3689 6.84334L20.7587 7.0363L21.1341 8.22337C21.1562 8.29329 21.1509 8.35962 21.1183 8.42237C21.0889 8.48412 21.0377 8.52654 20.9646 8.54966ZM22.943 7.92404C22.8985 7.93811 22.8542 7.94164 22.81 7.93463C22.769 7.92662 22.7293 7.90597 22.6908 7.8727L21.3955 6.76152L21.8333 6.47101L23.0131 7.48236C23.0995 7.55643 23.135 7.64132 23.1199 7.73702C23.1037 7.82954 23.0447 7.89188 22.943 7.92404ZM20.614 6.57864L21.2242 6.38568C21.3704 6.33945 21.4906 6.27173 21.5847 6.18253C21.6779 6.09014 21.7407 5.98464 21.7731 5.86601C21.8045 5.74421 21.8001 5.61974 21.7599 5.49262C21.7157 5.35277 21.6447 5.23887 21.5469 5.15091C21.4492 5.06295 21.3352 5.00637 21.2048 4.98116C21.0745 4.95595 20.9362 4.96646 20.79 5.01269L20.1798 5.20565L20.614 6.57864Z" fill="black"/>
<path d="M24.9286 6.8625C24.8557 6.87012 24.7918 6.85167 24.7369 6.80713C24.6852 6.76225 24.6556 6.70334 24.648 6.63041L24.2963 3.26373C24.2883 3.18748 24.3051 3.12372 24.3467 3.07246C24.3912 3.01753 24.45 2.98626 24.5229 2.97864C24.6025 2.97033 24.6721 2.9949 24.7317 3.05235L27.2012 5.71013L26.917 2.98994C26.9091 2.91369 26.9275 2.84976 26.9724 2.79815C27.0169 2.74322 27.0757 2.71195 27.1486 2.70433C27.2249 2.69636 27.2888 2.71482 27.3404 2.7597C27.3917 2.80127 27.4213 2.86017 27.4292 2.93643L27.781 6.3031C27.7886 6.37604 27.7718 6.4398 27.7306 6.49438C27.6893 6.54895 27.6306 6.58023 27.5544 6.58819C27.5212 6.59166 27.484 6.58884 27.4429 6.57973C27.4047 6.56696 27.3724 6.54687 27.3461 6.51946L24.8766 3.86167L25.1602 6.5769C25.1678 6.64983 25.1494 6.71376 25.1049 6.76869C25.0636 6.82327 25.0049 6.85454 24.9286 6.8625Z" fill="black"/>
<path d="M29.7034 6.04307C29.6102 6.03803 29.5408 5.99422 29.4952 5.91164C29.4496 5.82906 29.4492 5.74391 29.494 5.6562L31.0781 2.38196C31.1343 2.26816 31.219 2.21432 31.3322 2.22044C31.452 2.22692 31.5304 2.28958 31.5674 2.40841L32.7937 5.84464C32.8252 5.93982 32.814 6.02433 32.7599 6.09819C32.7094 6.16889 32.6358 6.20164 32.5393 6.19642C32.4894 6.19372 32.4418 6.17779 32.3967 6.14865C32.355 6.11635 32.3255 6.0747 32.3083 6.02369L31.2364 2.88123L31.3762 2.88879L29.9517 5.89626C29.9255 5.94826 29.8884 5.98631 29.8404 6.01042C29.7957 6.03471 29.75 6.04559 29.7034 6.04307ZM30.0145 5.19864L30.2374 4.78006L32.1945 4.88589L32.371 5.32606L30.0145 5.19864Z" fill="black"/>
<path d="M35.3108 6.23808C35.2392 6.22242 35.1843 6.18483 35.1461 6.12531C35.108 6.06578 35.0967 6.0002 35.1124 5.92856L35.8907 2.36763L36.3987 2.47867L35.6204 6.0396C35.6047 6.11124 35.5671 6.16615 35.5076 6.20431C35.4481 6.24248 35.3825 6.25374 35.3108 6.23808ZM34.7331 2.60594C34.6647 2.59099 34.6124 2.55737 34.576 2.50507C34.5437 2.45022 34.535 2.38861 34.5499 2.32022C34.5649 2.25184 34.5981 2.2011 34.6497 2.16802C34.7053 2.1324 34.7672 2.12206 34.8356 2.13701L37.4489 2.70823C37.5173 2.72317 37.5677 2.75807 37.6001 2.81291C37.6364 2.86521 37.6471 2.92555 37.6321 2.99394C37.6172 3.06232 37.5819 3.11433 37.5264 3.14996C37.4748 3.18304 37.4148 3.1921 37.3464 3.17715L34.7331 2.60594Z" fill="black"/>
<path d="M38.5961 6.91786C38.5259 6.89655 38.4742 6.8547 38.4409 6.79233C38.4075 6.72995 38.4016 6.66368 38.4229 6.59351L39.4068 3.35467C39.4291 3.28132 39.4709 3.22958 39.5323 3.19946C39.5947 3.16615 39.661 3.16016 39.7312 3.18148C39.8045 3.20376 39.8563 3.24561 39.8864 3.30701C39.9206 3.3662 39.9266 3.43247 39.9044 3.50582L38.9204 6.74467C38.8991 6.81483 38.8573 6.86657 38.7949 6.89988C38.7357 6.93415 38.6694 6.94015 38.5961 6.91786Z" fill="black"/>
<path d="M42.0418 7.89215C41.7839 7.75237 41.5711 7.58201 41.4032 7.38106C41.2369 7.17719 41.1182 6.9555 41.0471 6.716C40.9805 6.47515 40.9627 6.22473 40.9936 5.96474C41.0262 5.70181 41.1124 5.44141 41.2522 5.18352C41.3919 4.92564 41.5623 4.71276 41.7632 4.5449C41.9642 4.37704 42.1829 4.25675 42.4195 4.18403C42.6606 4.10997 42.9112 4.08843 43.1711 4.1194C43.4327 4.14744 43.6925 4.23135 43.9503 4.37113C44.2082 4.51092 44.4189 4.68195 44.5822 4.88424C44.7501 5.08518 44.8688 5.30687 44.9383 5.5493C45.0094 5.78881 45.0295 6.03856 44.9985 6.29855C44.9676 6.55854 44.8822 6.81748 44.7424 7.07537C44.6026 7.33325 44.4315 7.54759 44.2289 7.71839C44.028 7.88625 43.807 8.00721 43.5659 8.08127C43.3264 8.1524 43.0758 8.17394 42.8142 8.1459C42.5572 8.11652 42.2997 8.03194 42.0418 7.89215ZM42.2658 7.47895C42.4563 7.5822 42.6489 7.64301 42.8437 7.66139C43.043 7.67842 43.2338 7.65863 43.4162 7.60201C43.6001 7.54247 43.7673 7.44732 43.9178 7.31657C44.0712 7.18741 44.1996 7.02758 44.3028 6.8371C44.4061 6.64662 44.4699 6.45185 44.4944 6.25279C44.5218 6.05533 44.5095 5.86475 44.4574 5.68106C44.4069 5.49444 44.3193 5.32375 44.1947 5.16898C44.073 5.0158 43.9169 4.88759 43.7264 4.78434C43.5359 4.68109 43.3418 4.61948 43.1441 4.59952C42.9493 4.58115 42.7599 4.60173 42.576 4.66127C42.3966 4.71948 42.2302 4.81316 42.0767 4.94232C41.9233 5.07148 41.795 5.23131 41.6917 5.42179C41.5885 5.61227 41.5246 5.80704 41.5001 6.0061C41.4757 6.20515 41.4872 6.3972 41.5348 6.58223C41.5869 6.76592 41.673 6.93582 41.7931 7.09193C41.9178 7.24669 42.0753 7.3757 42.2658 7.47895Z" fill="black"/>
<path d="M45.6651 9.3267C45.6089 9.27956 45.5778 9.22077 45.5716 9.15033C45.568 9.08203 45.5898 9.0198 45.6369 8.96362L47.8128 6.3706C47.8621 6.31188 47.9196 6.27964 47.9853 6.27388C48.0558 6.26772 48.1191 6.28821 48.1753 6.33535C48.2365 6.38678 48.2673 6.45389 48.2674 6.53668L48.0732 10.1595L49.8313 8.06439C49.8806 8.00566 49.9394 7.97449 50.0077 7.97089C50.0781 7.96472 50.1414 7.98521 50.1976 8.03235C50.2563 8.08163 50.2875 8.14042 50.2911 8.20872C50.2968 8.27447 50.2751 8.33671 50.2258 8.39544L48.0499 10.9885C48.0028 11.0446 47.9453 11.0769 47.8774 11.0852C47.8095 11.0935 47.7462 11.073 47.6874 11.0237C47.6619 11.0023 47.6381 10.9736 47.616 10.9377C47.5987 10.9013 47.5907 10.8642 47.5921 10.8262L47.7863 7.2034L46.0314 9.29466C45.9843 9.35084 45.9255 9.38201 45.855 9.38817C45.7872 9.39647 45.7238 9.37598 45.6651 9.3267Z" fill="black"/>
<path d="M49.6692 12.2889C49.6081 12.2182 49.5915 12.1379 49.6194 12.0477C49.6472 11.9576 49.7083 11.8982 49.8025 11.8696L53.2596 10.7389C53.3806 10.7004 53.4781 10.7241 53.5522 10.8098C53.6307 10.9006 53.6399 11.0005 53.58 11.1096L51.956 14.3767C51.9094 14.4655 51.8407 14.516 51.75 14.5283C51.664 14.541 51.5894 14.5107 51.5262 14.4376C51.4935 14.3998 51.472 14.3545 51.4617 14.3017C51.456 14.2493 51.4656 14.1992 51.4903 14.1514L53.0098 11.1993L53.1014 11.3052L49.9472 12.3658C49.8916 12.383 49.8384 12.3827 49.7877 12.3648C49.7392 12.3495 49.6997 12.3242 49.6692 12.2889ZM50.4931 11.927L50.9492 11.7972L52.2309 13.2801L52.0363 13.7126L50.4931 11.927Z" fill="black"/>
<path d="M52.8301 15.5694C52.7915 15.5071 52.7802 15.4415 52.7963 15.3727C52.8141 15.3067 52.8542 15.2543 52.9165 15.2156L55.7923 13.4301C55.8546 13.3914 55.9202 13.3801 55.989 13.3962C56.0579 13.4123 56.1108 13.4501 56.1477 13.5095C56.1864 13.5719 56.1976 13.6374 56.1815 13.7063C56.1654 13.7751 56.1262 13.8289 56.0639 13.8676L53.4091 15.516L54.3638 17.0537C54.4025 17.116 54.4138 17.1816 54.3977 17.2504C54.3816 17.3193 54.3424 17.3731 54.2801 17.4117C54.2178 17.4504 54.1522 17.4617 54.0834 17.4456C54.0145 17.4295 53.9607 17.3903 53.9221 17.328L52.8301 15.5694Z" fill="black"/>
<path d="M55.3257 19.1327C55.2976 19.0649 55.2971 18.9984 55.3242 18.933C55.3512 18.8677 55.3986 18.821 55.4664 18.793L58.5938 17.4977C58.6646 17.4683 58.7311 17.4678 58.7934 17.4962C58.8587 17.5232 58.9054 17.5706 58.9335 17.6384L59.7983 19.7264C59.8276 19.7972 59.8296 19.8631 59.8044 19.9241C59.7822 19.9838 59.7372 20.0277 59.6695 20.0557C59.6048 20.0825 59.5435 20.0826 59.4856 20.0561C59.4278 20.0296 59.3841 19.9809 59.3548 19.91L58.5895 18.0623L57.467 18.5272L58.0161 19.853C58.0454 19.9238 58.0475 19.9897 58.0222 20.0507C58 20.1104 57.9566 20.1536 57.8919 20.1804C57.8272 20.2072 57.7644 20.208 57.7035 20.1827C57.6456 20.1562 57.6019 20.1075 57.5726 20.0367L57.0235 18.7109L55.8686 19.1892L56.6339 21.037C56.6633 21.1078 56.6669 21.1731 56.6447 21.2328C56.6225 21.2925 56.5791 21.3357 56.5144 21.3625C56.4467 21.3906 56.3823 21.392 56.3213 21.3667C56.2634 21.3402 56.2198 21.2915 56.1905 21.2207L55.3257 19.1327Z" fill="black"/>
<path d="M59.6767 24.2916C59.6627 24.2197 59.6741 24.1563 59.711 24.1016C59.7512 24.0462 59.8072 24.0115 59.8792 23.9975C59.9512 23.9835 60.0146 23.9949 60.0693 24.0318C60.1273 24.0681 60.1633 24.1222 60.1773 24.1942L60.4965 25.8334C60.5098 25.9021 60.4968 25.9658 60.4572 26.0244C60.4177 26.0831 60.3636 26.1191 60.2949 26.1324C60.2229 26.1464 60.1576 26.1337 60.099 26.0942C60.0436 26.054 60.0092 25.9996 59.9959 25.9309L59.6767 24.2916ZM58.5822 24.5047C58.5682 24.4328 58.5797 24.3694 58.6166 24.3147C58.6567 24.2593 58.7128 24.2246 58.7848 24.2106C58.86 24.196 58.925 24.2071 58.9797 24.244C59.0345 24.2809 59.0688 24.3353 59.0828 24.4073L59.402 26.0465C59.4154 26.1152 59.4023 26.1789 59.3628 26.2375C59.3233 26.2961 59.2691 26.3321 59.2004 26.3455C59.1317 26.3589 59.0681 26.3458 59.0094 26.3063C58.9508 26.2668 58.9148 26.2127 58.9014 26.144L58.5822 24.5047Z" fill="black"/>
<line x1="11" y1="18.5" x2="53" y2="18.5" stroke="black"/>
<line x1="11" y1="44.5" x2="53" y2="44.5" stroke="black"/>
<rect x="8.5" y="25.5" width="47" height="13" fill="white" stroke="black"/>
<path d="M22.157 37C21.9663 37 21.806 36.935 21.676 36.805C21.546 36.675 21.481 36.5147 21.481 36.324V27.523C21.481 27.3237 21.546 27.1633 21.676 27.042C21.806 26.912 21.9663 26.847 22.157 26.847H28.033C28.2323 26.847 28.3927 26.9077 28.514 27.029C28.6353 27.1417 28.696 27.2933 28.696 27.484C28.696 27.666 28.6353 27.8133 28.514 27.926C28.3927 28.0387 28.2323 28.095 28.033 28.095H22.833V31.254H26.564C26.7633 31.254 26.9237 31.3147 27.045 31.436C27.1663 31.5487 27.227 31.696 27.227 31.878C27.227 32.06 27.1663 32.2117 27.045 32.333C26.9237 32.4457 26.7633 32.502 26.564 32.502H22.833V36.324C22.833 36.5147 22.768 36.675 22.638 36.805C22.508 36.935 22.3477 37 22.157 37ZM34.975 37.13C34.273 37.13 33.6143 37 32.999 36.74C32.3923 36.4713 31.8593 36.103 31.4 35.635C30.9493 35.1583 30.594 34.6037 30.334 33.971C30.0827 33.3383 29.957 32.6537 29.957 31.917C29.957 31.189 30.0827 30.513 30.334 29.889C30.594 29.2563 30.9493 28.706 31.4 28.238C31.8593 27.7613 32.3923 27.3887 32.999 27.12C33.6057 26.8513 34.2643 26.717 34.975 26.717C35.6423 26.717 36.2143 26.8037 36.691 26.977C37.1763 27.1503 37.6617 27.4363 38.147 27.835C38.2163 27.887 38.2683 27.9433 38.303 28.004C38.3463 28.056 38.3723 28.1123 38.381 28.173C38.3983 28.225 38.407 28.29 38.407 28.368C38.407 28.5327 38.3463 28.6713 38.225 28.784C38.1123 28.888 37.9737 28.9487 37.809 28.966C37.6443 28.9747 37.484 28.9183 37.328 28.797C37.0073 28.5197 36.6737 28.3073 36.327 28.16C35.989 28.0127 35.5383 27.939 34.975 27.939C34.4637 27.939 33.9827 28.043 33.532 28.251C33.0813 28.459 32.6827 28.745 32.336 29.109C31.998 29.473 31.7337 29.8977 31.543 30.383C31.3523 30.8597 31.257 31.371 31.257 31.917C31.257 32.4717 31.3523 32.9917 31.543 33.477C31.7337 33.9537 31.998 34.374 32.336 34.738C32.6827 35.102 33.0813 35.388 33.532 35.596C33.9827 35.7953 34.4637 35.895 34.975 35.895C35.417 35.895 35.833 35.8213 36.223 35.674C36.6217 35.518 37.003 35.3057 37.367 35.037C37.523 34.9243 37.6747 34.8767 37.822 34.894C37.978 34.9027 38.108 34.9633 38.212 35.076C38.316 35.18 38.368 35.3273 38.368 35.518C38.368 35.6047 38.3507 35.6913 38.316 35.778C38.2813 35.856 38.2293 35.9297 38.16 35.999C37.692 36.3717 37.1893 36.6533 36.652 36.844C36.1233 37.0347 35.5643 37.13 34.975 37.13ZM41.2065 37C41.0158 37 40.8555 36.935 40.7255 36.805C40.5955 36.675 40.5305 36.5147 40.5305 36.324V27.523C40.5305 27.3237 40.5955 27.1633 40.7255 27.042C40.8555 26.912 41.0158 26.847 41.2065 26.847C41.4058 26.847 41.5661 26.912 41.6875 27.042C41.8175 27.1633 41.8825 27.3237 41.8825 27.523V36.324C41.8825 36.5147 41.8175 36.675 41.6875 36.805C41.5661 36.935 41.4058 37 41.2065 37Z" fill="black"/>
</svg>
