<svg width="65" height="65" viewBox="0 0 65 65" fill="none" xmlns="http://www.w3.org/2000/svg">
<circle cx="32.5" cy="32.5" r="32" stroke="black"/>
<circle cx="32" cy="32" r="24.5" stroke="black"/>
<path d="M58.0959 32.9016C58.1016 32.8285 58.1312 32.7689 58.1849 32.7229C58.2386 32.6769 58.3021 32.6568 58.3752 32.6624L61.7501 32.9233C61.8265 32.9292 61.8861 32.9589 61.9288 33.0123C61.9748 33.066 61.9949 33.1295 61.9893 33.2026L61.9122 34.1996C61.893 34.4488 61.821 34.6656 61.6965 34.8499C61.5719 35.0342 61.4074 35.1719 61.2031 35.2631C61.0019 35.3579 60.775 35.3955 60.5224 35.376C60.2798 35.3572 60.068 35.2857 59.8871 35.1614C59.7059 35.0404 59.5695 34.8794 59.4781 34.6784C59.3866 34.4774 59.3505 34.2523 59.3698 34.0031L59.4268 33.2653L58.3351 33.1809C58.262 33.1752 58.2024 33.1455 58.1564 33.0918C58.1102 33.0415 58.09 32.978 58.0959 32.9016ZM59.9054 33.3023L59.8484 34.0401C59.8366 34.1929 59.8594 34.3301 59.9169 34.4516C59.9743 34.573 60.0587 34.6715 60.1699 34.7469C60.281 34.8224 60.4114 34.8659 60.561 34.8775C60.7205 34.8898 60.8626 34.8674 60.9874 34.8101C61.1155 34.7532 61.219 34.6692 61.2977 34.5583C61.3765 34.4474 61.4218 34.3155 61.4336 34.1626L61.4907 33.4248L59.9054 33.3023Z" fill="black"/>
<path d="M57.2236 38.5438C57.2982 38.2601 57.4132 38.0128 57.5685 37.8021C57.7271 37.5922 57.9143 37.4242 58.1301 37.2983C58.3482 37.1764 58.5872 37.0996 58.8471 37.068C59.1103 37.0372 59.3837 37.0591 59.6674 37.1337C59.9511 37.2083 60.1983 37.3232 60.4091 37.4786C60.6199 37.6339 60.7886 37.8179 60.9154 38.0305C61.0446 38.2471 61.125 38.4853 61.1566 38.7453C61.1915 39.006 61.1716 39.2782 61.097 39.5619C61.0225 39.8456 60.9063 40.0908 60.7486 40.2975C60.5932 40.5083 60.4061 40.6762 60.1871 40.8013C59.9713 40.9273 59.7334 41.0061 59.4735 41.0377C59.2136 41.0693 58.9418 41.0478 58.6581 40.9733C58.3744 40.8987 58.1256 40.7833 57.9116 40.6271C57.7008 40.4718 57.5309 40.2858 57.4017 40.0691C57.2757 39.8534 57.1953 39.6151 57.1605 39.3543C57.128 39.0977 57.1491 38.8275 57.2236 38.5438ZM57.6782 38.6633C57.6231 38.8728 57.6098 39.0744 57.6381 39.2679C57.6689 39.4656 57.7334 39.6463 57.8317 39.81C57.9332 39.9745 58.0653 40.1144 58.2281 40.2295C58.39 40.3479 58.5757 40.4346 58.7852 40.4897C58.9948 40.5448 59.1991 40.5606 59.3983 40.5371C59.5966 40.5169 59.7789 40.4597 59.9449 40.3654C60.1142 40.2721 60.2592 40.1465 60.38 39.9887C60.4999 39.8341 60.5874 39.652 60.6425 39.4425C60.6976 39.2329 60.7113 39.0297 60.6838 38.8329C60.6554 38.6394 60.5905 38.4603 60.489 38.2958C60.3898 38.1353 60.2593 37.9959 60.0974 37.8775C59.9356 37.7591 59.7498 37.6724 59.5403 37.6173C59.3307 37.5622 59.1264 37.5464 58.9272 37.5699C58.728 37.5933 58.5442 37.6501 58.3758 37.7403C58.2097 37.8345 58.0651 37.9585 57.9419 38.1122C57.8212 38.27 57.7333 38.4537 57.6782 38.6633Z" fill="black"/>
<path d="M55.4778 43.3404C55.5922 43.0959 55.7448 42.8876 55.9356 42.7155C56.1281 42.5479 56.3432 42.4222 56.5811 42.3385C56.8206 42.2591 57.0718 42.2257 57.3345 42.2382C57.5959 42.2537 57.8549 42.3214 58.1116 42.4414C58.3652 42.5601 58.5803 42.714 58.7567 42.9032C58.9348 43.0969 59.0686 43.3103 59.1583 43.5436C59.2495 43.7813 59.2925 44.0277 59.2873 44.2828C59.282 44.538 59.2215 44.7893 59.1058 45.0369C58.997 45.2694 58.8737 45.4546 58.7356 45.5924C58.5961 45.7333 58.4174 45.8558 58.1995 45.9599C58.17 45.9756 58.1419 45.9845 58.1152 45.9867C58.09 45.9934 58.0661 45.9932 58.0436 45.9864C58.0226 45.9839 57.9986 45.9764 57.9714 45.9637C57.914 45.9368 57.8756 45.8931 57.8561 45.8325C57.8382 45.7763 57.8397 45.7181 57.8605 45.6579C57.8843 45.5991 57.93 45.5524 57.9977 45.5178C58.1466 45.4513 58.2749 45.3697 58.3827 45.2729C58.4891 45.1791 58.5882 45.0341 58.68 44.8378C58.7633 44.6597 58.8054 44.4752 58.8064 44.2843C58.8074 44.0934 58.7727 43.9079 58.7023 43.7278C58.6306 43.5507 58.5257 43.3894 58.3877 43.2439C58.2526 43.0998 58.09 42.9833 57.8998 42.8944C57.7065 42.804 57.5098 42.7525 57.3097 42.7399C57.1126 42.7286 56.923 42.7522 56.7412 42.8107C56.5579 42.8722 56.3933 42.9645 56.2474 43.0876C56.1045 43.2121 55.9914 43.3635 55.9081 43.5416C55.8361 43.6956 55.794 43.8526 55.7818 44.0125C55.7712 44.1768 55.783 44.3442 55.8173 44.5148C55.8312 44.5875 55.8231 44.6481 55.793 44.6966C55.7646 44.7496 55.7223 44.785 55.6661 44.8029C55.6129 44.8221 55.5531 44.8163 55.4867 44.7852C55.4565 44.7711 55.4291 44.7509 55.4045 44.7247C55.383 44.6999 55.3658 44.6698 55.353 44.6344C55.2994 44.4106 55.2831 44.1896 55.3042 43.9713C55.3239 43.756 55.3818 43.5458 55.4778 43.3404Z" fill="black"/>
<path d="M53.3653 46.9511C53.5177 46.7282 53.7019 46.5473 53.918 46.4084C54.135 46.2741 54.3677 46.1848 54.616 46.1405C54.8651 46.1009 55.1184 46.1084 55.3757 46.1632C55.6311 46.2207 55.8758 46.3295 56.1097 46.4894C56.3409 46.6474 56.5282 46.834 56.6718 47.0492C56.8162 47.2691 56.9138 47.5014 56.9646 47.7461C57.0163 47.9954 57.0189 48.2455 56.9725 48.4965C56.9262 48.7474 56.8258 48.9857 56.6716 49.2113C56.5267 49.4232 56.3751 49.586 56.2166 49.6998C56.0562 49.8162 55.86 49.9083 55.6281 49.9758C55.5965 49.9865 55.5674 49.9908 55.5406 49.9887C55.5147 49.9911 55.4911 49.9872 55.47 49.9768C55.4497 49.971 55.4272 49.9596 55.4024 49.9427C55.3501 49.9069 55.3193 49.8576 55.3098 49.7946C55.3013 49.7363 55.3121 49.6791 55.3424 49.623C55.3753 49.5688 55.428 49.5302 55.5004 49.507C55.6581 49.4653 55.7979 49.4055 55.9199 49.3274C56.0401 49.2521 56.1613 49.125 56.2836 48.9461C56.3946 48.7837 56.466 48.6084 56.4977 48.4202C56.5295 48.232 56.5252 48.0433 56.4849 47.8542C56.4427 47.6679 56.3652 47.4918 56.2525 47.3259C56.1426 47.1619 56.0009 47.0206 55.8275 46.9021C55.6514 46.7817 55.4656 46.6991 55.2701 46.6543C55.0774 46.6114 54.8866 46.6041 54.6976 46.6324C54.5068 46.6635 54.3295 46.728 54.1656 46.8259C54.0045 46.9257 53.8684 47.0568 53.7574 47.2192C53.6615 47.3595 53.5946 47.5076 53.5567 47.6634C53.5197 47.8239 53.5044 47.991 53.5107 48.1649C53.5126 48.2389 53.4948 48.2974 53.4573 48.3404C53.4207 48.3881 53.3732 48.4162 53.3149 48.4247C53.2593 48.4352 53.2012 48.4197 53.1407 48.3783C53.1131 48.3595 53.0894 48.3352 53.0694 48.3054C53.0522 48.2775 53.0401 48.245 53.0331 48.2079C53.0163 47.9784 53.036 47.7577 53.0921 47.5457C53.1463 47.3364 53.2374 47.1382 53.3653 46.9511Z" fill="black"/>
<path d="M51.7903 49.1439C51.8418 49.0917 51.904 49.0641 51.9771 49.0613C52.0501 49.0584 52.1128 49.0827 52.165 49.1341L54.5759 51.5102C54.6305 51.5641 54.6557 51.6263 54.6515 51.6971C54.6497 51.7702 54.623 51.8328 54.5715 51.885C54.5177 51.9397 54.4578 51.9648 54.3918 51.9606C54.3258 51.9611 54.2655 51.9344 54.2109 51.8806L52.1917 49.8906L52.6437 53.7058C52.6514 53.7882 52.6271 53.8579 52.571 53.9149C52.5172 53.9695 52.4561 53.9959 52.3877 53.994C52.3194 53.9969 52.2579 53.9714 52.2033 53.9176L49.7924 51.5415C49.7402 51.49 49.7138 51.4289 49.7133 51.3582C49.7104 51.2899 49.7359 51.2284 49.7897 51.1738C49.8412 51.1215 49.9023 51.0952 49.973 51.0947C50.0437 51.0941 50.1052 51.1196 50.1574 51.1711L52.173 53.1576L51.714 49.3496C51.7114 49.3142 51.717 49.2776 51.7309 49.2398C51.7447 49.202 51.7645 49.17 51.7903 49.1439Z" fill="black"/>
<path d="M48.003 52.7292C48.0639 52.6883 48.1304 52.6737 48.2025 52.6854C48.2747 52.6971 48.3312 52.7333 48.3722 52.7942L50.262 55.6025C50.3048 55.6661 50.3171 55.7322 50.2989 55.8007C50.2826 55.8719 50.244 55.928 50.1831 55.969C50.1195 56.0118 50.0558 56.0245 49.9919 56.0073C49.9272 55.9946 49.8734 55.9565 49.8306 55.8929L48.2478 53.5408L47.9315 57.3696C47.9226 57.452 47.885 57.5154 47.8186 57.5601C47.755 57.6029 47.6899 57.6166 47.6233 57.6012C47.5557 57.5904 47.5006 57.5532 47.4578 57.4896L45.568 54.6812C45.527 54.6204 45.5133 54.5552 45.5269 54.4858C45.5377 54.4183 45.5749 54.3631 45.6385 54.3203C45.6994 54.2794 45.7645 54.2657 45.8339 54.2793C45.9033 54.2928 45.9584 54.3301 45.9994 54.3909L47.5793 56.7388L47.8873 52.9155C47.8918 52.8804 47.9046 52.8457 47.9257 52.8114C47.9468 52.7771 47.9726 52.7497 48.003 52.7292ZM49.2019 57.0632C49.3429 56.9683 49.4859 56.9062 49.631 56.8769C49.7778 56.8504 49.9124 56.8563 50.0346 56.8946C50.1587 56.9357 50.256 57.0087 50.3268 57.1138C50.3658 57.1719 50.3804 57.2324 50.3705 57.2953C50.3606 57.3582 50.3294 57.4074 50.2769 57.4427C50.2216 57.4799 50.1643 57.4903 50.105 57.474C50.043 57.4594 49.9925 57.4231 49.9534 57.3651C49.9069 57.2959 49.8309 57.2607 49.7255 57.2593C49.622 57.2606 49.5163 57.2976 49.4084 57.3702C49.3006 57.4428 49.2265 57.5268 49.1863 57.6222C49.1479 57.7203 49.1519 57.804 49.1984 57.8731C49.2375 57.9312 49.2521 57.9917 49.2422 58.0546C49.2323 58.1175 49.2011 58.1666 49.1485 58.202C49.0932 58.2392 49.036 58.2496 48.9767 58.2332C48.9147 58.2187 48.8642 58.1824 48.8251 58.1243C48.7544 58.0192 48.7234 57.9015 48.732 57.7711C48.7426 57.6435 48.7878 57.5166 48.8677 57.3906C48.9467 57.2691 49.0581 57.16 49.2019 57.0632Z" fill="black"/>
<path d="M42.2297 55.9952C42.4768 55.8863 42.7288 55.8299 42.9857 55.826C43.2409 55.8264 43.4856 55.8734 43.7199 55.9669C43.9524 56.0647 44.1635 56.2048 44.3531 56.3872C44.5397 56.5709 44.6901 56.7924 44.8044 57.0516C44.9173 57.3079 44.9779 57.5653 44.9862 57.8239C44.9929 58.0869 44.9532 58.3357 44.8671 58.5703C44.7794 58.8093 44.6496 59.0231 44.4777 59.2118C44.3059 59.4004 44.0949 59.5499 43.8448 59.6601C43.6099 59.7636 43.3951 59.8218 43.2005 59.8347C43.0028 59.849 42.7876 59.8236 42.555 59.7586C42.5225 59.751 42.4955 59.7393 42.4739 59.7233C42.4505 59.7117 42.4327 59.6959 42.4202 59.6759C42.406 59.6603 42.3929 59.6388 42.3808 59.6113C42.3553 59.5533 42.3551 59.4951 42.3803 59.4367C42.4039 59.3826 42.4433 59.3397 42.4985 59.3081C42.5551 59.2795 42.6203 59.2745 42.694 59.293C42.8499 59.3408 43.0003 59.3638 43.1451 59.3619C43.2869 59.3613 43.457 59.3174 43.6553 59.23C43.8352 59.1507 43.9884 59.0395 44.1147 58.8964C44.2411 58.7533 44.337 58.5908 44.4026 58.4089C44.4651 58.2284 44.4923 58.0379 44.4841 57.8375C44.4773 57.6402 44.4315 57.4454 44.3468 57.2533C44.2608 57.058 44.1466 56.8898 44.0042 56.7486C43.8632 56.6104 43.705 56.5034 43.5296 56.4277C43.3511 56.3534 43.1664 56.3146 42.9755 56.3113C42.786 56.311 42.6013 56.3505 42.4213 56.4298C42.2657 56.4984 42.1307 56.5888 42.0163 56.7012C41.9002 56.8179 41.7989 56.9518 41.7125 57.1028C41.6751 57.1666 41.6291 57.2069 41.5745 57.2237C41.5183 57.2448 41.4631 57.2437 41.409 57.2201C41.3563 57.1997 41.3151 57.1559 41.2856 57.0888C41.2721 57.0583 41.2648 57.0251 41.2636 56.9892C41.2637 56.9564 41.2705 56.9224 41.2842 56.8872C41.3911 56.6835 41.5243 56.5064 41.6839 56.3559C41.8404 56.2068 42.0223 56.0866 42.2297 55.9952Z" fill="black"/>
<path d="M37.232 57.6999C37.2655 57.643 37.3214 57.6062 37.3997 57.5894C37.4771 57.5693 37.5451 57.5793 37.6037 57.6192L39.6699 59.0574L38.6472 61.2124C38.6163 61.2789 38.5653 61.3214 38.4943 61.3398C38.4209 61.3622 38.3549 61.3534 38.2964 61.3135C38.2378 61.2736 38.2027 61.2241 38.1909 61.1652C38.1767 61.1104 38.1855 61.0513 38.2173 60.9879L39.0736 59.2479L37.3172 58.0291C37.2587 57.9891 37.2203 57.9405 37.202 57.8833C37.1814 57.8301 37.1914 57.769 37.232 57.6999ZM39.7425 56.983C39.8135 56.9647 39.8795 56.9734 39.9404 57.0093C40.0013 57.0452 40.041 57.0986 40.0594 57.1696L40.9075 60.4466C40.9267 60.5209 40.9179 60.5868 40.8812 60.6445C40.8453 60.7055 40.7919 60.7451 40.7209 60.7635C40.6467 60.7827 40.5807 60.7739 40.523 60.7372C40.4629 60.7046 40.4233 60.6511 40.4041 60.5769L40.0445 59.1877L39.2507 59.3932L39.1354 58.9478L39.9293 58.7424L39.5559 57.2999C39.5376 57.2289 39.5463 57.1629 39.5822 57.102C39.6148 57.0419 39.6683 57.0023 39.7425 56.983Z" fill="black"/>
<path d="M36.0915 57.8445C36.1844 57.8359 36.2595 57.8691 36.3167 57.9442C36.3738 58.0192 36.3867 58.1034 36.3552 58.1967L35.2662 61.6672C35.2272 61.788 35.1513 61.8536 35.0385 61.8641C34.919 61.8751 34.8323 61.8246 34.7783 61.7124L33.0634 58.4922C33.0183 58.4026 33.017 58.3174 33.0597 58.2364C33.0994 58.1591 33.1674 58.1159 33.2636 58.107C33.3134 58.1024 33.3628 58.1112 33.4117 58.1334C33.4576 58.1593 33.4929 58.1962 33.5174 58.2441L35.0367 61.1964L34.8973 61.2093L35.8673 58.026C35.8856 57.9708 35.9168 57.9277 35.9608 57.8968C36.0015 57.8663 36.045 57.8488 36.0915 57.8445ZM35.9071 58.7253L35.7477 59.172L33.7961 59.3531L33.5572 58.9435L35.9071 58.7253Z" fill="black"/>
<path d="M29.3307 57.9762C29.4038 57.9813 29.4636 58.0105 29.51 58.0639C29.5564 58.1172 29.5771 58.1805 29.572 58.2537L29.4856 59.4957L30.4284 59.5612L30.4249 59.6111C30.6743 59.6284 30.8922 59.6904 31.0786 59.7969C31.2614 59.9065 31.4018 60.0499 31.4997 60.2272C31.5977 60.4044 31.6391 60.6011 31.6241 60.8172C31.6074 61.0566 31.5379 61.264 31.4154 61.4392C31.2927 61.6178 31.133 61.7521 30.9363 61.842C30.7361 61.935 30.5112 61.9728 30.2618 61.9554L29.0597 61.8718C28.9833 61.8665 28.9235 61.8373 28.8804 61.7842C28.8337 61.7341 28.8131 61.6709 28.8184 61.5944L29.0533 58.2176C29.0584 58.1444 29.0876 58.0846 29.1409 58.0382C29.1909 57.9916 29.2542 57.9709 29.3307 57.9762ZM31.5503 58.1306C31.6567 58.138 31.7287 58.1848 31.7661 58.2709C31.8033 58.3604 31.7886 58.4513 31.7221 58.5435L30.8125 59.8035L30.3187 59.6238L31.3172 58.2397C31.3468 58.1983 31.3822 58.1691 31.4235 58.1519C31.4615 58.1345 31.5038 58.1274 31.5503 58.1306ZM30.3964 60.0201L29.4537 59.9545L29.3524 61.411L30.2951 61.4766C30.4448 61.487 30.5814 61.4681 30.7051 61.4199C30.8254 61.3715 30.9227 61.293 30.9971 61.1846C31.0712 61.0795 31.114 60.9455 31.1253 60.7825C31.1359 60.6296 31.1117 60.4976 31.0526 60.3865C30.9933 60.2788 30.9074 60.1926 30.7949 60.128C30.6789 60.0665 30.5461 60.0305 30.3964 60.0201Z" fill="black"/>
<path d="M22.7549 56.4935C22.8136 56.4633 22.8805 56.462 22.9557 56.4895C23.0319 56.514 23.0841 56.5587 23.1122 56.6237L24.0913 58.943L22.0759 60.2189C22.0142 60.2587 21.9484 60.2673 21.8786 60.245C21.8045 60.2248 21.7534 60.1821 21.7253 60.1171C21.6971 60.0521 21.6937 59.9915 21.7152 59.9354C21.7325 59.8814 21.7715 59.8362 21.8322 59.7996L23.4854 58.7856L22.6512 56.8173C22.623 56.7522 22.6165 56.6906 22.6316 56.6325C22.6426 56.5765 22.6837 56.5302 22.7549 56.4935ZM25.2603 57.2279C25.3301 57.2503 25.3812 57.2929 25.4136 57.3558C25.446 57.4186 25.451 57.485 25.4286 57.5548L24.3958 60.7784C24.3724 60.8514 24.3298 60.9025 24.268 60.9317C24.2051 60.9641 24.1387 60.9691 24.0689 60.9467C23.9959 60.9233 23.9448 60.8807 23.9156 60.8188C23.8822 60.7591 23.8772 60.6928 23.9006 60.6198L24.3384 59.2532L23.5575 59.003L23.6979 58.5649L24.4788 58.8151L24.9334 57.3962C24.9558 57.3263 24.9984 57.2752 25.0612 57.2429C25.1209 57.2095 25.1873 57.2045 25.2603 57.2279Z" fill="black"/>
<path d="M21.3008 55.8335C21.3654 55.8682 21.4093 55.9202 21.4326 55.9895C21.456 56.0588 21.4503 56.1257 21.4156 56.1903L19.8135 59.1722C19.7772 59.2397 19.7245 59.2814 19.6555 59.2973C19.5848 59.3161 19.5172 59.3082 19.4526 59.2734C19.3851 59.2372 19.344 59.1867 19.3295 59.1222C19.3105 59.059 19.3191 58.9936 19.3554 58.9261L20.6972 56.4287L17.1631 57.9356C17.0862 57.9661 17.0125 57.9624 16.942 57.9246C16.8745 57.8883 16.832 57.8371 16.8145 57.771C16.7926 57.7062 16.7997 57.64 16.836 57.5725L18.4381 54.5906C18.4728 54.526 18.524 54.4835 18.5917 54.4631C18.6565 54.4412 18.7226 54.4483 18.7902 54.4846C18.8548 54.5193 18.8973 54.5705 18.9176 54.6383C18.938 54.706 18.9309 54.7721 18.8962 54.8367L17.5568 57.3297L21.082 55.8181C21.1152 55.8057 21.1518 55.8008 21.192 55.8034C21.2322 55.8061 21.2685 55.8161 21.3008 55.8335Z" fill="black"/>
<path d="M16.8264 53.229C16.8829 53.2757 16.9145 53.3343 16.9212 53.4047C16.9279 53.4751 16.9078 53.5385 16.8611 53.595L14.7041 56.2038C14.6553 56.2629 14.5967 56.2945 14.5285 56.2986C14.4581 56.3053 14.3946 56.2853 14.3381 56.2385C14.279 56.1897 14.2474 56.1311 14.2433 56.0628C14.2345 55.995 14.2545 55.9316 14.3034 55.8725L15.2178 54.7665L13.4298 53.2882L12.5154 54.3941C12.4665 54.4532 12.408 54.4848 12.3397 54.4889C12.2693 54.4956 12.2058 54.4756 12.1493 54.4288C12.0902 54.38 12.0586 54.3214 12.0545 54.2532C12.0483 54.1875 12.0696 54.1251 12.1185 54.066L14.2754 51.4572C14.3222 51.4007 14.3794 51.368 14.4473 51.3592C14.5151 51.3504 14.5786 51.3705 14.6376 51.4193C14.6942 51.466 14.7257 51.5246 14.7324 51.595C14.7391 51.6654 14.7191 51.7288 14.6723 51.7854L13.7229 52.9337L15.5109 54.412L16.4603 53.2637C16.5071 53.2072 16.5656 53.1756 16.636 53.1689C16.7039 53.1601 16.7673 53.1801 16.8264 53.229Z" fill="black"/>
<path d="M11.9988 48.5435C12.1833 48.7716 12.3144 49.0106 12.3922 49.2606C12.4675 49.5127 12.4919 49.763 12.4657 50.0115C12.4347 50.2594 12.355 50.4975 12.2265 50.7256C12.0955 50.9559 11.9159 51.1633 11.6878 51.3477C11.4597 51.5321 11.2207 51.6633 10.9707 51.7411C10.7207 51.8189 10.4725 51.846 10.2262 51.8223C9.9751 51.7981 9.7355 51.7217 9.50733 51.5933C9.27657 51.467 9.06898 51.2897 8.88454 51.0617C8.70011 50.8336 8.57132 50.5948 8.49818 50.3453C8.42035 50.0953 8.39588 49.845 8.42477 49.5944C8.45107 49.346 8.52844 49.1077 8.65687 48.8795C8.78531 48.6513 8.96358 48.445 9.19168 48.2606C9.41977 48.0762 9.66012 47.944 9.91271 47.8641C10.1627 47.7862 10.4132 47.7594 10.6643 47.7836C10.9127 47.8099 11.1523 47.8862 11.3831 48.0126C11.6092 48.1384 11.8144 48.3154 11.9988 48.5435ZM11.6334 48.839C11.4971 48.6705 11.3426 48.5404 11.1698 48.4486C10.9924 48.3564 10.8086 48.3014 10.6185 48.2836C10.4258 48.268 10.2348 48.2916 10.0457 48.3545C9.85441 48.4149 9.67453 48.5132 9.50605 48.6494C9.33757 48.7856 9.20381 48.9409 9.10477 49.1153C9.00363 49.2871 8.94184 49.4678 8.9194 49.6574C8.89437 49.8492 8.90968 50.0404 8.96533 50.2312C9.01889 50.4193 9.11379 50.5977 9.25002 50.7661C9.38625 50.9346 9.54181 51.066 9.71669 51.1604C9.88949 51.2522 10.0722 51.3059 10.2649 51.3215C10.4529 51.3367 10.6426 51.3141 10.8338 51.2537C11.0251 51.1934 11.205 51.0951 11.3735 50.9589C11.5419 50.8227 11.6757 50.6673 11.7747 50.493C11.8738 50.3186 11.9369 50.1368 11.964 49.9477C11.9864 49.7581 11.9722 49.5681 11.9212 49.3779C11.8655 49.1871 11.7696 49.0075 11.6334 48.839Z" fill="black"/>
<path d="M10.0326 45.988C10.0774 46.0699 10.0767 46.152 10.0305 46.2343C9.98426 46.3165 9.91208 46.3617 9.81392 46.3698L6.19619 46.7467C6.06984 46.7588 5.97948 46.7151 5.9251 46.6157C5.86753 46.5104 5.87953 46.4108 5.9611 46.3168L8.23703 43.4652C8.30133 43.3882 8.3783 43.3518 8.46796 43.356C8.55309 43.3588 8.61885 43.4027 8.66523 43.4875C8.68921 43.5313 8.7007 43.5802 8.6997 43.6339C8.69417 43.6863 8.67426 43.7333 8.63999 43.7748L6.53735 46.3493L6.46059 46.2089L9.77707 45.8542C9.83505 45.8491 9.88694 45.8606 9.93273 45.8888C9.97692 45.914 10.0102 45.9471 10.0326 45.988Z" fill="black"/>
<path d="M7.50525 40.4648C7.5979 40.7431 7.6368 41.013 7.62194 41.2744C7.60391 41.5369 7.53899 41.7798 7.42717 42.0032C7.31113 42.2245 7.15294 42.4195 6.9526 42.5881C6.74909 42.7577 6.50818 42.8888 6.22986 42.9815C5.95155 43.0741 5.68168 43.113 5.42027 43.0982C5.15886 43.0833 4.91697 43.0216 4.6946 42.9129C4.46802 42.8021 4.27044 42.6466 4.10186 42.4462C3.93012 42.2469 3.79793 42.0081 3.70528 41.7298C3.61262 41.4515 3.57584 41.1827 3.59491 40.9234C3.60977 40.662 3.67469 40.419 3.78968 40.1946C3.9015 39.9711 4.05758 39.7751 4.25793 39.6066C4.45827 39.438 4.6976 39.3074 4.97592 39.2147C5.25423 39.1221 5.52568 39.0826 5.79025 39.0965C6.05166 39.1113 6.29566 39.1741 6.52224 39.2849C6.74567 39.3967 6.94325 39.5523 7.11499 39.7516C7.28251 39.9487 7.4126 40.1865 7.50525 40.4648ZM7.05931 40.6133C6.99087 40.4077 6.89186 40.2316 6.76226 40.0851C6.62845 39.9364 6.47565 39.8204 6.30387 39.737C6.12892 39.6547 5.94184 39.6099 5.74262 39.6024C5.54234 39.5918 5.33942 39.6207 5.13385 39.6891C4.92827 39.7576 4.74851 39.856 4.59456 39.9846C4.43956 40.11 4.31828 40.2575 4.23072 40.4272C4.14001 40.5979 4.08723 40.7823 4.07239 40.9805C4.05651 41.1755 4.08278 41.3758 4.15121 41.5814C4.21965 41.7869 4.31919 41.9646 4.44984 42.1143C4.57944 42.2609 4.73171 42.3753 4.90665 42.4576C5.07739 42.5378 5.26289 42.5832 5.46316 42.5938C5.66344 42.6044 5.86636 42.5755 6.07193 42.5071C6.27751 42.4386 6.45727 42.3402 6.61122 42.2116C6.76517 42.0831 6.88803 41.935 6.9798 41.7675C7.06736 41.5978 7.12066 41.4149 7.13971 41.2189C7.15454 41.0207 7.12774 40.8188 7.05931 40.6133Z" fill="black"/>
<path d="M6.50107 36.9511C6.51121 37.0237 6.49497 37.0882 6.45237 37.1447C6.40976 37.2011 6.35214 37.2344 6.27951 37.2445L2.92701 37.7124C2.85108 37.723 2.78655 37.7068 2.73342 37.6637C2.67698 37.6211 2.6437 37.5635 2.63356 37.4909L2.34811 35.4457C2.33751 35.3698 2.3521 35.3055 2.39187 35.2528C2.42833 35.2006 2.48288 35.1694 2.55551 35.1593C2.62484 35.1496 2.68419 35.1649 2.73355 35.2051C2.78292 35.2453 2.8129 35.3034 2.8235 35.3794L3.07301 37.167L6.20763 36.7295C6.28026 36.7194 6.34479 36.7356 6.40122 36.7782C6.45765 36.8208 6.49094 36.8784 6.50107 36.9511Z" fill="black"/>
<path d="M6.02907 32.7132C6.02596 32.7865 5.9983 32.8487 5.94608 32.8998C5.89386 32.951 5.83112 32.975 5.75785 32.9719L2.3759 32.8283C2.2993 32.825 2.23882 32.7957 2.19446 32.7405C2.14677 32.6851 2.12448 32.6207 2.12759 32.5475C2.13085 32.4709 2.15837 32.412 2.21016 32.3708C2.25877 32.3262 2.32137 32.3055 2.39797 32.3087L5.23041 32.429L2.33497 29.9039C2.27395 29.8479 2.24515 29.78 2.24854 29.7C2.25179 29.6234 2.27939 29.5629 2.33132 29.5184C2.38007 29.4704 2.44274 29.4481 2.51934 29.4513L5.90129 29.595C5.97456 29.5981 6.03511 29.6257 6.08294 29.6777C6.13092 29.7265 6.15328 29.7892 6.15002 29.8658C6.14691 29.939 6.11932 29.9996 6.06724 30.0474C6.01516 30.0952 5.95249 30.1176 5.87922 30.1145L3.05177 29.9944L5.94764 32.5096C5.97329 32.534 5.99367 32.5649 6.00876 32.6022C6.02386 32.6396 6.03063 32.6766 6.02907 32.7132Z" fill="black"/>
<path d="M5.4315 26.2545C5.36079 26.5666 5.23611 26.8152 5.05745 27.0003C4.87555 27.1847 4.65179 27.3048 4.38618 27.3609C4.11731 27.4162 3.81546 27.4059 3.48061 27.33L2.79304 27.1742C2.71827 27.1573 2.66365 27.1193 2.62919 27.0602C2.59147 27.0004 2.58072 26.9347 2.59692 26.8632C2.61387 26.7884 2.65188 26.7338 2.71095 26.6993C2.76751 26.6609 2.83318 26.6501 2.90795 26.6671L3.59552 26.8228C3.84259 26.8788 4.06216 26.8978 4.25422 26.8798C4.44376 26.8578 4.60151 26.7876 4.72746 26.6692C4.85415 26.5475 4.94475 26.3664 4.99926 26.1258C5.04493 25.9243 5.06069 25.7416 5.04654 25.5777C5.0324 25.4139 4.99264 25.2801 4.92727 25.1764C4.85938 25.0688 4.76855 25.002 4.65477 24.9763L4.70891 24.7373C4.90721 24.7823 5.07024 24.8773 5.19799 25.0225C5.32648 25.1644 5.41251 25.3428 5.45609 25.5577C5.49715 25.7687 5.48896 26.0009 5.4315 26.2545ZM6.96999 25.2343C6.95379 25.3058 6.91578 25.3604 6.85596 25.3981C6.79615 25.4358 6.73048 25.4466 6.65896 25.4304L3.35765 24.6824C3.28287 24.6654 3.22826 24.6274 3.19379 24.5683C3.15608 24.5085 3.14532 24.4429 3.16153 24.3713C3.17847 24.2966 3.21648 24.2419 3.27556 24.2075C3.33212 24.169 3.39778 24.1583 3.47256 24.1752L6.77387 24.9232C6.84539 24.9394 6.90001 24.9775 6.93773 25.0373C6.97618 25.0938 6.98693 25.1595 6.96999 25.2343Z" fill="black"/>
<path d="M7.50614 23.4973C7.47858 23.5652 7.43224 23.613 7.36712 23.6405C7.302 23.6681 7.23545 23.6681 7.16749 23.6405L4.03053 22.3686C3.95948 22.3398 3.91173 22.2935 3.88727 22.2296C3.85972 22.1645 3.85972 22.098 3.88727 22.03L4.73644 19.9356C4.76525 19.8645 4.81004 19.8162 4.87083 19.7904C4.92852 19.7635 4.99134 19.7638 5.0593 19.7913C5.12417 19.8176 5.16792 19.8606 5.19055 19.9201C5.21317 19.9796 5.21008 20.0449 5.18127 20.1159L4.42979 21.9694L5.55576 22.4259L6.09495 21.0961C6.12376 21.025 6.16855 20.9766 6.22933 20.9509C6.28703 20.924 6.34831 20.9236 6.41318 20.9499C6.47805 20.9762 6.52334 21.0198 6.54905 21.0806C6.57168 21.1401 6.56858 21.2054 6.53978 21.2764L6.00059 22.6063L7.159 23.0759L7.91048 21.2225C7.93928 21.1514 7.98253 21.1024 8.04023 21.0755C8.09792 21.0485 8.1592 21.0482 8.22407 21.0745C8.29203 21.102 8.33887 21.1462 8.36458 21.207C8.3872 21.2665 8.38411 21.3318 8.35531 21.4029L7.50614 23.4973Z" fill="black"/>
<path d="M9.98329 18.4868C9.8434 18.7177 9.66939 18.9085 9.46124 19.0591C9.25197 19.2052 9.02459 19.3071 8.7791 19.365C8.53249 19.4182 8.27921 19.4246 8.01927 19.3841C7.76106 19.3407 7.51078 19.2456 7.26844 19.0988C7.02895 18.9537 6.83161 18.7777 6.67641 18.5707C6.52009 18.359 6.40986 18.1325 6.3457 17.891C6.28042 17.6449 6.26404 17.3953 6.29654 17.1422C6.32905 16.8891 6.4161 16.6456 6.55772 16.4118C6.69069 16.1923 6.83319 16.0214 6.98519 15.8991C7.13892 15.774 7.32972 15.6713 7.55758 15.5911C7.5885 15.5787 7.6174 15.5728 7.64426 15.5735C7.67 15.5696 7.69372 15.5722 7.7154 15.5815C7.73596 15.5861 7.75907 15.5962 7.78473 15.6118C7.8389 15.6446 7.87243 15.6922 7.88532 15.7546C7.89708 15.8123 7.8894 15.87 7.86229 15.9277C7.83233 15.9836 7.78185 16.0251 7.71085 16.0522C7.55572 16.1025 7.41938 16.1699 7.30183 16.2546C7.18601 16.3364 7.07197 16.47 6.95972 16.6553C6.85783 16.8235 6.79619 17.0025 6.77482 17.1922C6.75344 17.3819 6.76808 17.57 6.81875 17.7566C6.87114 17.9403 6.95817 18.1119 7.07984 18.2714C7.19865 18.4291 7.34787 18.5623 7.52749 18.6711C7.70996 18.7817 7.90002 18.8539 8.09767 18.8879C8.29248 18.9202 8.48343 18.917 8.67052 18.8783C8.85935 18.8368 9.03288 18.7626 9.19111 18.6558C9.34648 18.5473 9.47512 18.4089 9.57701 18.2407C9.66509 18.0953 9.72375 17.9438 9.75299 17.7861C9.78111 17.6239 9.78725 17.4561 9.7714 17.2828C9.76542 17.2091 9.77996 17.1497 9.81502 17.1046C9.84896 17.0551 9.89482 17.0244 9.95261 17.0126C10.0075 16.9991 10.0664 17.0114 10.1291 17.0494C10.1576 17.0666 10.1827 17.0896 10.2043 17.1183C10.223 17.1452 10.2369 17.177 10.2459 17.2136C10.2752 17.4419 10.2677 17.6634 10.2234 17.8781C10.1808 18.09 10.1007 18.2929 9.98329 18.4868Z" fill="black"/>
<path d="M13.1066 14.1797C13.1119 14.2455 13.0873 14.3078 13.0329 14.3665C12.981 14.4274 12.9197 14.4583 12.8488 14.4593L10.3313 14.4695L9.9301 12.1182C9.91722 12.0459 9.93455 11.9818 9.98209 11.926C10.0293 11.8655 10.0883 11.8347 10.1591 11.8338C10.23 11.8328 10.2872 11.8531 10.3307 11.8945C10.3739 11.9313 10.4006 11.9847 10.4109 12.0548L10.7099 13.971L12.8478 13.9593C12.9186 13.9583 12.978 13.976 13.0258 14.0124C13.0733 14.044 13.1002 14.0998 13.1066 14.1797ZM11.4639 16.2089C11.4163 16.2648 11.3573 16.2955 11.2868 16.3011C11.2163 16.3068 11.1532 16.2858 11.0973 16.2383L8.52023 14.0436C8.46187 13.9939 8.43113 13.9349 8.42802 13.8665C8.42237 13.7961 8.44332 13.7329 8.49086 13.6771C8.54057 13.6187 8.59959 13.588 8.66791 13.5849C8.73586 13.577 8.79901 13.598 8.85738 13.6477L9.9499 14.5781L10.4816 13.9538L10.8318 14.2521L10.3001 14.8763L11.4345 15.8424C11.4903 15.8899 11.5211 15.949 11.5267 16.0194C11.5345 16.0874 11.5136 16.1506 11.4639 16.2089Z" fill="black"/>
<path d="M13.8507 13.4841C13.7799 13.5449 13.6995 13.5612 13.6094 13.533C13.5194 13.5048 13.4602 13.4436 13.432 13.3492L12.3138 9.88806C12.2758 9.76696 12.2998 9.66951 12.3858 9.59571C12.4769 9.51758 12.5769 9.50868 12.6857 9.56901L15.9469 11.2049C16.0355 11.2518 16.0858 11.3207 16.0978 11.4114C16.1101 11.4975 16.0796 11.5719 16.0062 11.6349C15.9682 11.6674 15.9229 11.6888 15.8701 11.6989C15.8177 11.7044 15.7676 11.6947 15.7199 11.6697L12.7733 10.1395L12.8795 10.0483L13.9287 13.2064C13.9457 13.2621 13.9452 13.3152 13.9271 13.3658C13.9116 13.4143 13.8861 13.4537 13.8507 13.4841ZM13.4919 12.6588L13.3637 12.2022L14.8513 10.926L15.2831 11.1222L13.4919 12.6588Z" fill="black"/>
<path d="M19.2366 9.47651C19.1741 9.51473 19.1084 9.52554 19.0397 9.50893C18.9709 9.49232 18.9175 9.45273 18.8792 9.39014L18.2303 8.32764L17.4238 8.82021L17.3978 8.77754C17.1844 8.90785 16.9709 8.98356 16.7573 9.00468C16.5447 9.02122 16.3472 8.98562 16.1647 8.89787C15.9822 8.81013 15.8345 8.6738 15.7216 8.4889C15.5965 8.28408 15.5331 8.07477 15.5314 7.86098C15.528 7.64434 15.5804 7.44241 15.6887 7.25519C15.7981 7.06338 15.9595 6.90233 16.1729 6.77202L17.2012 6.14393C17.2666 6.10397 17.3323 6.09316 17.3982 6.11151C17.4652 6.12527 17.5187 6.16487 17.5586 6.2303L19.323 9.1191C19.3612 9.18168 19.372 9.24734 19.3554 9.31608C19.3417 9.38307 19.3021 9.43655 19.2366 9.47651ZM17.3378 10.6363C17.2468 10.6919 17.161 10.6954 17.0806 10.6469C16.9985 10.5955 16.9578 10.5129 16.9586 10.3991L16.9704 8.84522L17.4769 8.70574L17.4647 10.4123C17.4645 10.4632 17.4525 10.5076 17.4288 10.5455C17.408 10.5817 17.3776 10.6119 17.3378 10.6363ZM17.184 8.42764L17.9905 7.93507L17.2295 6.68909L16.423 7.18166C16.295 7.25984 16.1946 7.35439 16.1217 7.4653C16.0517 7.57447 16.0178 7.69479 16.0199 7.82626C16.0204 7.95488 16.0632 8.08889 16.1483 8.22828C16.2282 8.35914 16.3244 8.45271 16.4369 8.50899C16.5477 8.56243 16.6676 8.58292 16.7967 8.57047C16.9269 8.55344 17.056 8.50583 17.184 8.42764Z" fill="black"/>
<path d="M24.2262 6.83671C23.9609 6.91513 23.7076 6.95177 23.4662 6.94663C23.2249 6.94149 23.0038 6.89908 22.803 6.8194C22.6044 6.73558 22.4344 6.61898 22.2929 6.46962C22.1546 6.31931 22.0543 6.13867 21.992 5.92769C21.9296 5.71672 21.9161 5.51216 21.9514 5.31403C21.9889 5.11177 22.0687 4.92308 22.1907 4.74798C22.315 4.56873 22.4771 4.41135 22.6769 4.27583C22.8766 4.14032 23.1092 4.03335 23.3745 3.95494C23.6398 3.87652 23.8932 3.83988 24.1345 3.84502C24.3759 3.85016 24.5958 3.89464 24.7944 3.97846C24.9952 4.05814 25.1648 4.17314 25.303 4.32345C25.4436 4.46961 25.545 4.64818 25.6074 4.85916C25.6697 5.07014 25.6821 5.27676 25.6446 5.47903C25.6102 5.68036 25.5309 5.87064 25.4066 6.04989C25.2846 6.22499 25.1237 6.3803 24.9239 6.51582C24.7241 6.65133 24.4915 6.7583 24.2262 6.83671ZM24.1072 6.43393C24.3661 6.35741 24.5819 6.2467 24.7546 6.10182C24.9305 5.95599 25.0512 5.78822 25.1168 5.59852C25.1856 5.40787 25.1893 5.20866 25.1279 5.00088C25.0665 4.79309 24.9555 4.62949 24.7951 4.51006C24.6369 4.38649 24.4444 4.31132 24.2175 4.28453C23.9938 4.25679 23.7525 4.28119 23.4936 4.35771C23.2346 4.43424 23.0172 4.54542 22.8413 4.69125C22.6687 4.83613 22.5479 5.0039 22.4791 5.19455C22.4126 5.38105 22.41 5.5782 22.4715 5.78598C22.5329 5.99376 22.6427 6.15944 22.8008 6.283C22.9622 6.40563 23.1547 6.48081 23.3784 6.50854C23.6053 6.53533 23.8483 6.51046 24.1072 6.43393ZM24.3634 7.26542C24.293 7.28621 24.2268 7.27971 24.1647 7.24593C24.1026 7.21216 24.0611 7.1601 24.0403 7.08978L23.9596 6.81646L23.924 6.60799L23.2494 4.32559L23.1815 4.18403L23.0809 3.84359C23.0592 3.77006 23.0657 3.70384 23.1004 3.64492C23.1342 3.58279 23.1862 3.54134 23.2566 3.52056C23.3301 3.49883 23.3963 3.50532 23.4552 3.54005C23.5164 3.57063 23.5579 3.62268 23.5796 3.6962L23.6816 4.04144L23.7002 4.19238L24.3747 6.47478L24.4469 6.63072L24.539 6.94239C24.5598 7.01272 24.5533 7.07894 24.5195 7.14106C24.4889 7.20224 24.4369 7.24369 24.3634 7.26542Z" fill="black"/>
<path d="M28.109 6.37484C28.0361 6.38246 27.9721 6.36401 27.9172 6.31947C27.8623 6.27494 27.831 6.2162 27.8234 6.14327L27.4717 2.77659C27.4637 2.70034 27.4822 2.63641 27.5271 2.5848C27.5716 2.52987 27.6303 2.4986 27.7033 2.49098L29.951 2.25615C30.0273 2.24819 30.091 2.26499 30.1423 2.30655C30.1932 2.3448 30.2225 2.40039 30.2301 2.47333C30.2374 2.54295 30.2201 2.60174 30.1781 2.64968C30.1362 2.69763 30.0772 2.72559 30.0009 2.73355L28.0117 2.94137L28.138 4.14979L29.5652 4.00069C29.6415 3.99272 29.7052 4.00952 29.7565 4.05108C29.8074 4.08933 29.8365 4.14327 29.8438 4.21289C29.851 4.28251 29.8339 4.34295 29.7923 4.39422C29.7504 4.44216 29.6913 4.47012 29.6151 4.47809L28.1878 4.62719L28.3177 5.87043L30.3069 5.66261C30.3832 5.65465 30.4467 5.66979 30.4977 5.70804C30.5486 5.74629 30.5777 5.80023 30.5849 5.86985C30.5926 5.94278 30.5756 6.00488 30.534 6.05615C30.4921 6.10409 30.433 6.13205 30.3568 6.14002L28.109 6.37484Z" fill="black"/>
<path d="M32.5584 5.90141L32.1312 5.65275L33.7906 2.41601C33.8495 2.30355 33.9354 2.25168 34.0484 2.26042C34.168 2.26967 34.245 2.33412 34.2792 2.45378L35.4256 5.91744L34.9961 6.08985L33.9672 2.92113L34.037 2.92652L32.5584 5.90141ZM31.9191 6.90513C31.846 6.89948 31.7864 6.8698 31.7404 6.81609C31.6944 6.76239 31.6743 6.69898 31.6799 6.62586L31.7439 5.79833C31.7498 5.72189 31.7795 5.66234 31.8329 5.61966C31.8866 5.57366 31.95 5.55349 32.0231 5.55914L35.5327 5.83043C35.6091 5.83634 35.6687 5.86602 35.7113 5.91946C35.7576 5.96984 35.7778 6.03325 35.7719 6.10969L35.7079 6.93722C35.7022 7.01034 35.6726 7.0699 35.6189 7.11589C35.5685 7.16215 35.5051 7.18232 35.4286 7.17641C35.3555 7.17076 35.296 7.14108 35.25 7.08738C35.204 7.03367 35.1838 6.97026 35.1894 6.89715L35.238 6.26902L32.2469 6.03781L32.1984 6.66594C32.1927 6.73905 32.163 6.79861 32.1093 6.84461C32.0589 6.89086 31.9955 6.91104 31.9191 6.90513Z" fill="black"/>
<path d="M37.4837 6.63454C37.4128 6.6159 37.3595 6.57605 37.3239 6.51498C37.2882 6.45391 37.2797 6.38791 37.2984 6.31699L38.1589 3.0432C38.1784 2.96906 38.2183 2.91577 38.2785 2.88335C38.3396 2.8477 38.4056 2.8392 38.4765 2.85784L40.6623 3.4324C40.7364 3.45189 40.7901 3.49013 40.8234 3.54713C40.8575 3.6009 40.8652 3.66325 40.8466 3.73418C40.8288 3.80188 40.7918 3.85075 40.7357 3.88079C40.6795 3.91084 40.6144 3.91612 40.5402 3.89663L38.6059 3.38817L38.297 4.56325L39.6849 4.92807C39.759 4.94756 39.8128 4.9858 39.846 5.0428C39.8801 5.09658 39.8883 5.15731 39.8705 5.22501C39.8527 5.29271 39.8153 5.3432 39.7583 5.37647C39.7022 5.40651 39.637 5.41179 39.5629 5.3923L38.175 5.02748L37.8572 6.23641L39.7915 6.74487C39.8657 6.76436 39.9198 6.80099 39.9539 6.85476C39.988 6.90854 39.9962 6.96927 39.9784 7.03697C39.9598 7.1079 39.9219 7.16 39.8649 7.19326C39.8088 7.22331 39.7436 7.22859 39.6695 7.2091L37.4837 6.63454Z" fill="black"/>
<path d="M41.4993 7.83069C41.4323 7.80087 41.3861 7.75295 41.3608 7.68694C41.3355 7.62092 41.3377 7.55442 41.3675 7.48742L42.7441 4.39496C42.7752 4.32492 42.8232 4.27875 42.8878 4.25645C42.9538 4.2311 43.0203 4.23334 43.0873 4.26316L44.0009 4.66982C44.2293 4.77149 44.4094 4.91188 44.5413 5.091C44.6732 5.27011 44.7479 5.47119 44.7654 5.69424C44.7873 5.9156 44.7467 6.142 44.6437 6.37344C44.5447 6.59574 44.4063 6.77132 44.2286 6.90016C44.0539 7.03037 43.8565 7.10488 43.6365 7.12371C43.4165 7.14253 43.1923 7.10112 42.9639 6.99945L42.2879 6.69852L41.8426 7.69889C41.8128 7.76588 41.7648 7.81206 41.6988 7.8374C41.6359 7.8641 41.5694 7.86186 41.4993 7.83069ZM42.4831 6.26L43.1591 6.56093C43.2992 6.62329 43.4361 6.64773 43.5698 6.63427C43.7035 6.62081 43.8245 6.57434 43.9328 6.49487C44.0412 6.4154 44.1259 6.30714 44.1869 6.17011C44.2519 6.02393 44.2784 5.88248 44.2663 5.74574C44.2556 5.60595 44.2111 5.48036 44.133 5.36897C44.0549 5.25757 43.9458 5.1707 43.8057 5.10834L43.1297 4.80741L42.4831 6.26Z" fill="black"/>
<path d="M44.8372 9.38115C44.759 9.33018 44.7208 9.25754 44.7226 9.16322C44.7244 9.06889 44.7666 8.99496 44.8493 8.9414L47.8583 6.89801C47.9639 6.82758 48.0642 6.82331 48.1592 6.88519C48.2597 6.95072 48.2962 7.04419 48.2688 7.16559L47.6125 10.7545C47.5923 10.8528 47.5403 10.9203 47.4565 10.9572C47.3774 10.9932 47.2973 10.9848 47.2163 10.932C47.1745 10.9047 47.1412 10.8671 47.1167 10.8193C47.0968 10.7705 47.0921 10.7197 47.1027 10.6669L47.7458 7.40953L47.863 7.48598L45.1256 9.37817C45.0769 9.41011 45.0258 9.4245 44.9721 9.42136C44.9212 9.42004 44.8763 9.40663 44.8372 9.38115ZM45.5288 8.8054L45.9311 8.55439L47.5731 9.62468L47.5059 10.0941L45.5288 8.8054Z" fill="black"/>
<path d="M50.3225 14.7932C50.2692 14.7429 50.2415 14.6824 50.2394 14.6117C50.2374 14.541 50.2615 14.479 50.3118 14.4257L50.7442 13.9675L48.6203 11.9636C48.5669 11.9133 48.5392 11.8528 48.5372 11.7821C48.5351 11.7114 48.5593 11.6494 48.6096 11.596L50.9326 9.13393C50.9852 9.07817 51.0457 9.05047 51.1141 9.05084C51.1847 9.04879 51.2468 9.07292 51.3001 9.12325C51.3559 9.17586 51.3836 9.23636 51.3832 9.30476C51.3875 9.37301 51.3634 9.43502 51.3108 9.49079L49.1251 11.8074L50.6816 13.276L52.8673 10.9594C52.9199 10.9036 52.9804 10.8759 53.0488 10.8763C53.1195 10.8742 53.1815 10.8984 53.2349 10.9487C53.2906 11.0013 53.3183 11.0618 53.318 11.1302C53.3223 11.1985 53.2982 11.2605 53.2456 11.3162L51.0598 13.6329L51.2489 13.8113C51.3047 13.8639 51.3324 13.9244 51.332 13.9928C51.3364 14.0611 51.3122 14.1231 51.2596 14.1788L50.69 14.7825C50.6397 14.8359 50.5792 14.8636 50.5085 14.8656C50.4403 14.87 50.3783 14.8458 50.3225 14.7932Z" fill="black"/>
<path d="M52.3313 15.7057C52.289 15.6458 52.2729 15.5796 52.2831 15.5072C52.2932 15.4348 52.3282 15.3775 52.3881 15.3352L55.1543 13.3842C55.217 13.34 55.2827 13.3263 55.3516 13.3429C55.4232 13.3577 55.4802 13.3951 55.5224 13.455C55.5666 13.5176 55.5808 13.5811 55.5649 13.6453C55.5536 13.7103 55.5167 13.765 55.454 13.8091L53.1373 15.4431L56.9722 15.6753C57.0547 15.6824 57.119 15.7186 57.1651 15.784C57.2093 15.8466 57.2244 15.9114 57.2104 15.9784C57.2011 16.0461 57.1651 16.1021 57.1025 16.1463L54.3363 18.0973C54.2763 18.1396 54.2115 18.1547 54.1419 18.1426C54.0741 18.1333 54.0181 18.0973 53.9739 18.0347C53.9317 17.9748 53.9166 17.91 53.9286 17.8403C53.9406 17.7706 53.9766 17.7146 54.0365 17.6724L56.3492 16.0413L52.5201 15.8173C52.4849 15.8136 52.4499 15.8015 52.4151 15.7812C52.3804 15.7608 52.3524 15.7357 52.3313 15.7057Z" fill="black"/>
<path d="M56.0409 21.9618C56.0101 21.8952 56.0069 21.8288 56.0312 21.7624C56.0556 21.696 56.101 21.6474 56.1676 21.6166L57.2973 21.0934L56.9002 20.2359L56.9456 20.2149C56.8405 19.988 56.7897 19.7673 56.7932 19.5526C56.801 19.3396 56.859 19.1475 56.967 18.9762C57.0751 18.8049 57.2274 18.6738 57.424 18.5827C57.6418 18.4819 57.857 18.4429 58.0695 18.4656C58.2852 18.487 58.4798 18.5622 58.6534 18.6912C58.8314 18.8218 58.973 19.0005 59.078 19.2274L59.5844 20.3208C59.6166 20.3904 59.6198 20.4568 59.5941 20.5202C59.5727 20.5852 59.5273 20.6338 59.4577 20.666L56.3861 22.0885C56.3195 22.1193 56.2531 22.1225 56.1867 22.0981C56.1217 22.0768 56.0731 22.0314 56.0409 21.9618ZM55.1059 19.9428C55.0611 19.846 55.0674 19.7604 55.1248 19.6861C55.1852 19.6103 55.2719 19.5794 55.3848 19.5932L56.9272 19.7826L57.0078 20.3018L55.3139 20.0944C55.2634 20.0884 55.2206 20.0715 55.1857 20.0436C55.1521 20.0187 55.1255 19.9851 55.1059 19.9428ZM57.3176 20.0426L57.7147 20.9001L59.0396 20.2866L58.6425 19.4291C58.5794 19.293 58.497 19.1824 58.3951 19.0973C58.2947 19.0152 58.179 18.9678 58.0482 18.9549C57.9203 18.9406 57.7823 18.9678 57.6341 19.0365C57.495 19.1009 57.391 19.1858 57.3222 19.2911C57.2565 19.395 57.2224 19.5118 57.22 19.6415C57.2221 19.7728 57.2546 19.9065 57.3176 20.0426Z" fill="black"/>
<path d="M22.1869 24.768L25.7451 19.6281C26.0089 19.2479 26.3594 18.9361 26.7677 18.7184C27.1759 18.5008 27.6302 18.3835 28.0928 18.3764L34.8454 18.2795H34.8594C38.3456 18.2795 41.0204 18.8627 42.7432 21.7086C44.3471 24.3576 45.0312 28.8701 45.0312 36.7969V37.7656H42.8178L44.2427 45.0313H42.2683L40.8434 37.7656H40.1875C38.6053 37.7798 37.081 37.171 35.9439 36.0708C34.9159 35.0872 34.1743 33.7415 33.7994 32.1792L33.796 32.1652L32.1344 24.2031H34.1137L35.6866 31.7405C36.1657 33.7192 37.5982 35.8281 40.1875 35.8281H43.0901C43.0375 28.9702 42.4131 24.9043 41.0857 22.7116C39.9717 20.871 38.3432 20.2176 34.8661 20.2167L28.1207 20.3136C27.9665 20.316 27.815 20.355 27.6789 20.4276C27.5429 20.5002 27.426 20.6041 27.3381 20.7308L23.3131 26.5445L17.9062 27.4457V28.4725L18.8079 33.2812C19.074 34.7005 19.5289 35.4154 21.3944 35.6395L29.0418 36.9478L29.0923 45.0313H27.1548L27.1145 38.5834L21.1385 37.5602C19.7847 37.3938 18.7858 36.9575 18.0853 36.2268C17.4865 35.6021 17.1221 34.8039 16.9035 33.6383L15.9688 28.6525V25.8044L22.1869 24.768Z" fill="black"/>
<circle cx="60" cy="27" r="1" fill="black"/>
</svg>
